<svg xmlns="http://www.w3.org/2000/svg" xmlns:xlink="http://www.w3.org/1999/xlink" width="121" height="121" viewBox="0 0 121 121">
  <defs>
    <filter id="Elipse_39" x="0" y="0" width="121" height="121" filterUnits="userSpaceOnUse">
      <feOffset dy="3" input="SourceAlpha"/>
      <feGaussianBlur stdDeviation="1.5" result="blur"/>
      <feFlood flood-opacity="0.161"/>
      <feComposite operator="in" in2="blur"/>
      <feComposite in="SourceGraphic"/>
    </filter>
    <linearGradient id="linear-gradient" x1="0.5" x2="0.5" y2="1" gradientUnits="objectBoundingBox">
      <stop offset="0" stop-color="#d2ff5c"/>
      <stop offset="1" stop-color="#82e778"/>
    </linearGradient>
  </defs>
  <g id="campanas" transform="translate(-853.144 -456.769)">
    <g transform="matrix(1, 0, 0, 1, 853.14, 456.77)" filter="url(#Elipse_39)">
      <circle id="Elipse_39-2" data-name="Elipse 39" cx="56" cy="56" r="56" transform="translate(4.5 1.5)" fill="#2e0063"/>
    </g>
    <path id="christmas-bell" d="M80.475,38.593a1.392,1.392,0,0,0-.853-.61,1.436,1.436,0,0,0-1.06.155,3.924,3.924,0,0,1-5.226-1.2l-1.179-1.63c-.01-.015-.014-.031-.023-.046l-7.9-10.892a4.031,4.031,0,0,0,3.321-3.983V4.177A4.061,4.061,0,0,0,61.9.451L51.293,5a2.7,2.7,0,0,0-2.649-2.174H32.437A2.7,2.7,0,0,0,29.789,5L19.175.449a4.062,4.062,0,0,0-5.647,3.727V20.385a4.035,4.035,0,0,0,3.321,3.985L8.95,35.26c-.01.013-.013.031-.022.044l-1.2,1.655a3.927,3.927,0,0,1-5.267,1.147,1.335,1.335,0,0,0-1.032-.144,1.352,1.352,0,0,0-.828.632C-1.583,42.4,2.228,47.846,11.062,53.665c-.085.12-.195.22-.27.347a4.655,4.655,0,1,0,8.066,4.647,3.38,3.38,0,0,0,.189-.387c5.213,2.6,9.65,3.983,12.89,3.983S36.643,60.9,37.3,59.768a1.421,1.421,0,0,0-.563-1.884,3.929,3.929,0,0,1-1.578-5.124l.838-1.864,4.549-10.171,4.548,10.169.847,1.891a3.953,3.953,0,0,1-1.682,5.159,1.35,1.35,0,0,0-.468,1.827c.654,1.133,2.112,2.484,5.359,2.484s7.684-1.383,12.908-3.993c.061.135.1.27.173.406a4.685,4.685,0,0,0,4.052,2.324,4.63,4.63,0,0,0,4-6.962,3.477,3.477,0,0,0-.249-.367C78.863,47.837,82.664,42.391,80.475,38.593ZM62.962,2.936a1.345,1.345,0,0,1,1.283.119,1.33,1.33,0,0,1,.607,1.122V20.385a1.35,1.35,0,0,1-1.891,1.244L51.346,16.645V7.917ZM32.04,21.71a2.671,2.671,0,0,0,.4.026h2.933l3.6,6.24-5.5,9.544-1.725-4.477a1.35,1.35,0,0,0-1.26-.866,1.285,1.285,0,0,0-.214.018l-4.727.754Zm6.451.026H48.645a2.836,2.836,0,0,0,.389-.027l6.483,11.239-4.727-.754a1.35,1.35,0,0,0-1.473.849L47.6,37.515ZM32.437,5.528H48.645V19.034H32.437ZM16.229,20.385V4.177a1.33,1.33,0,0,1,.607-1.122,1.343,1.343,0,0,1,1.279-.121L29.731,7.917v8.728L18.107,21.63a1.322,1.322,0,0,1-1.272-.111A1.336,1.336,0,0,1,16.229,20.385Zm.291,36.922a1.975,1.975,0,0,1-2.679.727,1.955,1.955,0,0,1-.709-2.67,2.051,2.051,0,0,1,.181-.27q.81.492,1.665.983t1.676.945A1.813,1.813,0,0,1,16.52,57.307Zm15.417,2.246c-3.077,0-7.758-1.584-13.173-4.457q-1.183-.643-2.446-1.363c-.833-.477-1.62-.945-2.385-1.432-7.622-4.762-10.948-8.821-11.2-11.165a6.577,6.577,0,0,0,7.2-2.618l.155-.214c.123.162.243.328.358.5a4.619,4.619,0,0,1,.293,1.039,5.723,5.723,0,0,0,1.6,3.326,4.945,4.945,0,0,0,2.685.945,4.534,4.534,0,0,1,1.707.448,4.29,4.29,0,0,1,.751,1.131,5.781,5.781,0,0,0,2.057,2.467,5.8,5.8,0,0,0,3.144.54,4,4,0,0,1,1.386.1,4.419,4.419,0,0,1,1.242,1.244A4.937,4.937,0,0,0,27.473,51.9a5.643,5.643,0,0,0,3.672-.27,4.749,4.749,0,0,1,1.039-.27c.2.016.406.038.608.065l-.09.2a6.618,6.618,0,0,0,1.324,7.564A5.4,5.4,0,0,1,31.937,59.553Zm2-10.689c-.5-.075-1.022-.152-1.555-.2a5.575,5.575,0,0,0-2.073.392,3.462,3.462,0,0,1-1.972.282,4.079,4.079,0,0,1-.907-.962,6.436,6.436,0,0,0-2.2-2.008,5.56,5.56,0,0,0-2.618-.367,3.885,3.885,0,0,1-1.739-.188A3.861,3.861,0,0,1,19.856,44.4a5.544,5.544,0,0,0-1.592-2.066,6.552,6.552,0,0,0-2.857-.9,4.238,4.238,0,0,1-1.281-.3,3.542,3.542,0,0,1-.741-1.862,5.558,5.558,0,0,0-.69-1.98c-.3-.448-.636-.867-.961-1.268v-.009l8.033-11.076a11.68,11.68,0,0,1,1.576-1.765L29.79,19.56a2.773,2.773,0,0,0,.129.421L21.786,34.053a1.35,1.35,0,0,0,.057,1.441,1.336,1.336,0,0,0,1.326.567l6.443-1.029,2.348,6.1a1.351,1.351,0,0,0,1.152.866h.106a1.35,1.35,0,0,0,1.17-.675l3.8-6.6a13.757,13.757,0,0,0,.863,2.68v.008Zm6.6-17.188c0-.33.013-.632.035-.925l6.1,10.568a1.35,1.35,0,0,0,1.17.675h.107a1.35,1.35,0,0,0,1.155-.863l2.337-6.094,6.44,1.027a1.35,1.35,0,0,0,1.383-2.007L51.166,20a2.719,2.719,0,0,0,.135-.431l8.447,3.623a11.631,11.631,0,0,1,1.574,1.756l8.035,11.076-.009.021c-.321.406-.654.811-.946,1.252a5.554,5.554,0,0,0-.692,1.984,3.538,3.538,0,0,1-.742,1.863,4.229,4.229,0,0,1-1.28.3,6.547,6.547,0,0,0-2.862.9A5.535,5.535,0,0,0,61.237,44.4,3.816,3.816,0,0,1,60.2,45.817,3.882,3.882,0,0,1,58.472,46a5.631,5.631,0,0,0-2.6.358,6.483,6.483,0,0,0-2.214,2.018,3.954,3.954,0,0,1-.919.967,3.5,3.5,0,0,1-1.959-.288,5.667,5.667,0,0,0-2.083-.39c-.524.042-1.045.119-1.545.195l-5.6-12.514A11.362,11.362,0,0,1,40.541,31.676Zm26.7,26.357a1.976,1.976,0,0,1-2.68-.72,1.886,1.886,0,0,1-.135-.291q.819-.451,1.675-.945t1.664-.982a1.989,1.989,0,0,1,.185.27A1.954,1.954,0,0,1,67.245,58.033Zm-.1-5.73q-1.131.715-2.379,1.428c-.843.482-1.659.936-2.431,1.359-5.427,2.877-10.108,4.458-13.185,4.458a5.383,5.383,0,0,1-2.092-.355A6.591,6.591,0,0,0,48.4,51.645l-.1-.224c.2-.026.4-.047.6-.062a3.773,3.773,0,0,1,1.049.27,5.651,5.651,0,0,0,3.66.27,4.951,4.951,0,0,0,2.173-1.854,4.366,4.366,0,0,1,1.26-1.252,4.114,4.114,0,0,1,1.368-.095,5.808,5.808,0,0,0,3.135-.54,5.785,5.785,0,0,0,2.066-2.473,4.329,4.329,0,0,1,.746-1.126,4.5,4.5,0,0,1,1.712-.452,4.952,4.952,0,0,0,2.685-.945,5.723,5.723,0,0,0,1.6-3.327,4.59,4.59,0,0,1,.3-1.043c.113-.17.233-.335.355-.5l.135.19a6.577,6.577,0,0,0,7.217,2.627C78.11,43.464,74.787,47.533,67.149,52.3Zm0,0" transform="translate(873.229 484.074)" fill="url(#linear-gradient)"/>
  </g>
</svg>
