<svg xmlns="http://www.w3.org/2000/svg" width="124.354" height="158.532" viewBox="0 0 124.354 158.532">
  <g id="christmas-tree" transform="translate(-55.19)">
    <g id="Grupo_227" data-name="Grupo 227" transform="translate(108.801 43.504)">
      <path id="Trazado_463" data-name="Trazado 463" d="M231.431,146.7a3.1,3.1,0,1,1,3.1-3.114v.018A3.1,3.1,0,0,1,231.431,146.7Z" transform="translate(-228.335 -140.503)" fill="#2e0063"/>
    </g>
    <g id="Grupo_228" data-name="Grupo 228" transform="translate(97.18 108.393)">
      <path id="Trazado_464" data-name="Trazado 464" d="M193.9,356.267a3.1,3.1,0,1,1,3.1-3.1v.009A3.1,3.1,0,0,1,193.9,356.267Z" transform="translate(-190.801 -350.07)" fill="#2e0063"/>
    </g>
    <g id="Grupo_229" data-name="Grupo 229" transform="translate(96.471 80.751)">
      <path id="Trazado_465" data-name="Trazado 465" d="M191.608,267a3.1,3.1,0,1,1,3.1-3.114v.018A3.1,3.1,0,0,1,191.608,267Z" transform="translate(-188.512 -260.797)" fill="#2e0063"/>
    </g>
    <g id="Grupo_230" data-name="Grupo 230" transform="translate(122.795 109.832)">
      <path id="Trazado_466" data-name="Trazado 466" d="M276.625,360.921a3.1,3.1,0,1,1,3.1-3.114v.018A3.1,3.1,0,0,1,276.625,360.921Z" transform="translate(-273.529 -354.72)" fill="#2e0063"/>
    </g>
    <g id="Grupo_231" data-name="Grupo 231" transform="translate(124.589 50.917)">
      <path id="Trazado_467" data-name="Trazado 467" d="M282.419,170.644a3.1,3.1,0,1,1,3.1-3.114v.018A3.1,3.1,0,0,1,282.419,170.644Z" transform="translate(-279.323 -164.443)" fill="#2e0063"/>
    </g>
    <path id="Trazado_468" data-name="Trazado 468" d="M362.066,408.055a3.1,3.1,0,0,0,0,6.193h.018a3.1,3.1,0,1,0-.018-6.193Z" transform="translate(-209.72 -281.708)" fill="#2e0063"/>
    <path id="Trazado_469" data-name="Trazado 469" d="M178.62,127.237l-27.308-26.895H171a3.1,3.1,0,0,0,2.173-5.3L147.965,70.2H159.89a3.1,3.1,0,0,0,2.173-5.3L130.851,34.156,129.5,25.027l7.178-7.339a3.1,3.1,0,0,0-1.7-5.218l-10.116-1.713-4.758-9.1a3.1,3.1,0,0,0-5.487,0l-4.757,9.1L99.742,12.471a3.1,3.1,0,0,0-1.7,5.218l7.179,7.339-1.34,9.119L72.671,64.9a3.1,3.1,0,0,0,2.173,5.3H88.179L62.966,95.04a3.1,3.1,0,0,0,2.173,5.3H83.41l-27.3,26.9a3.1,3.1,0,0,0,2.173,5.3H76.951a9.505,9.505,0,0,0,17.971,0h6.606v21.242a4.76,4.76,0,0,0,4.759,4.75h22.158a4.756,4.756,0,0,0,4.75-4.75V132.539h5.34a3.1,3.1,0,0,0,0-6.193H94.924a9.5,9.5,0,0,0-17.973,0H65.841l26.392-26h6.336a3.1,3.1,0,0,0,0-6.193H72.694L97,70.2h5.082a9.511,9.511,0,0,0,17.98,0H139.14L163.449,94.15H150.414a9.505,9.505,0,0,0-17.971,0H116.973a3.1,3.1,0,0,0,0,6.193h15.469a9.494,9.494,0,0,0,14.651,4.536l21.8,21.468h-2.726a3.1,3.1,0,1,0,0,6.193h10.283a3.1,3.1,0,0,0,2.173-5.3ZM127,132.539v19.8H107.722v-19.8Zm-41.063-6.415a3.314,3.314,0,1,1-3.318,3.319A3.318,3.318,0,0,1,85.941,126.124ZM112.414,16.607a3.1,3.1,0,0,0,2.227-1.618l2.726-5.212,2.726,5.212a3.1,3.1,0,0,0,2.227,1.618l5.8.981L124,21.795a3.1,3.1,0,0,0-.85,2.618l.858,5.814-5.266-2.615a3.1,3.1,0,0,0-2.754,0l-5.271,2.618.855-5.819a3.1,3.1,0,0,0-.85-2.615l-4.114-4.206Zm-1.339,53.808a3.314,3.314,0,1,1,3.318-3.31A3.318,3.318,0,0,1,111.075,70.415Zm8.991-6.406a9.508,9.508,0,0,0-17.981,0H82.4L108.6,38.2l8.769-4.356,8.751,4.347,26.216,25.821H120.066Zm21.359,36.555a3.314,3.314,0,1,1,3.318-3.319A3.318,3.318,0,0,1,141.425,100.564Z" fill="#2e0063"/>
  </g>
</svg>
