<svg xmlns="http://www.w3.org/2000/svg" width="89.082" height="102.21" viewBox="0 0 89.082 102.21">
  <g id="frost" transform="translate(-1.541 0)">
    <path id="Trazado_470" data-name="Trazado 470" d="M21.776,34.552A12.776,12.776,0,1,1,34.552,21.776,12.792,12.792,0,0,1,21.776,34.552Zm0-21.293a8.517,8.517,0,1,0,8.517,8.517A8.526,8.526,0,0,0,21.776,13.259Z" transform="translate(24.306 29.33)" fill="#2e0063"/>
    <path id="Trazado_471" data-name="Trazado 471" d="M13.629,29.552A2.13,2.13,0,0,1,11.5,27.423V6.129a2.129,2.129,0,0,1,4.259,0V27.423A2.13,2.13,0,0,1,13.629,29.552Z" transform="translate(32.453 13.036)" fill="#2e0063"/>
    <path id="Trazado_472" data-name="Trazado 472" d="M21.774,17.772a2.148,2.148,0,0,1-1.329-.464L9.8,8.791a2.13,2.13,0,0,1,2.662-3.326l9.314,7.453,9.318-7.453a2.13,2.13,0,0,1,2.662,3.326L23.107,17.308A2.168,2.168,0,0,1,21.774,17.772Z" transform="translate(24.308 16.299)" fill="#2e0063"/>
    <path id="Trazado_473" data-name="Trazado 473" d="M21.776,21.295a2.148,2.148,0,0,1-1.329-.464L9.8,12.313a2.132,2.132,0,0,1,0-3.33L20.447.466a2.132,2.132,0,0,1,2.662,0L33.756,8.983a2.135,2.135,0,0,1,0,3.33L23.1,20.831A2.147,2.147,0,0,1,21.776,21.295ZM14.541,10.648l7.235,5.792,7.235-5.792L21.776,4.856Z" transform="translate(24.306 0)" fill="#2e0063"/>
    <path id="Trazado_474" data-name="Trazado 474" d="M13.629,39.552A2.13,2.13,0,0,1,11.5,37.423V16.129a2.129,2.129,0,0,1,4.259,0V37.423A2.13,2.13,0,0,1,13.629,39.552Z" transform="translate(32.453 45.623)" fill="#2e0063"/>
    <path id="Trazado_475" data-name="Trazado 475" d="M32.424,28.778a2.131,2.131,0,0,1-1.329-.464l-9.318-7.457L12.46,28.309A2.13,2.13,0,1,1,9.8,24.983l10.647-8.517a2.132,2.132,0,0,1,2.662,0l10.647,8.517a2.131,2.131,0,0,1-1.329,3.794Z" transform="translate(24.304 52.138)" fill="#2e0063"/>
    <path id="Trazado_476" data-name="Trazado 476" d="M21.776,40.295a2.148,2.148,0,0,1-1.329-.464L9.8,31.313a2.132,2.132,0,0,1,0-3.33l10.647-8.517a2.132,2.132,0,0,1,2.662,0l10.647,8.517a2.135,2.135,0,0,1,0,3.33L23.1,39.831A2.147,2.147,0,0,1,21.776,40.295ZM14.541,29.648l7.235,5.792,7.235-5.792-7.235-5.792Z" transform="translate(24.306 61.914)" fill="#2e0063"/>
    <path id="Trazado_477" data-name="Trazado 477" d="M25.574,22.655a2.1,2.1,0,0,1-1.065-.285L6.07,11.723A2.129,2.129,0,0,1,8.2,8.035l18.44,10.647a2.129,2.129,0,0,1-1.065,3.973Z" transform="translate(11.288 25.257)" fill="#2e0063"/>
    <path id="Trazado_478" data-name="Trazado 478" d="M6.753,28.78a2.13,2.13,0,0,1-.775-4.114l11.107-4.344L15.3,8.53A2.128,2.128,0,0,1,19.5,7.892L21.551,21.37a2.134,2.134,0,0,1-1.329,2.3l-12.7,4.961a2.153,2.153,0,0,1-.775.145Z" transform="translate(10.034 19.834)" fill="#2e0063"/>
    <path id="Trazado_479" data-name="Trazado 479" d="M5.718,27.284A2.1,2.1,0,0,1,4.653,27a2.131,2.131,0,0,1-1.039-1.525L1.565,12a2.136,2.136,0,0,1,1.329-2.3l12.7-4.961A2.135,2.135,0,0,1,18.472,6.4l2.053,13.479a2.134,2.134,0,0,1-1.329,2.3l-12.7,4.961a2.1,2.1,0,0,1-.775.145Zm.315-14.245L7.425,22.2l8.632-3.369-1.4-9.165Z" transform="translate(0.001 14.942)" fill="#2e0063"/>
    <path id="Trazado_480" data-name="Trazado 480" d="M34.234,27.653a2.1,2.1,0,0,1-1.065-.285L14.73,16.721a2.129,2.129,0,1,1,2.129-3.688L35.3,23.68a2.129,2.129,0,0,1-1.065,3.973Z" transform="translate(39.508 41.552)" fill="#2e0063"/>
    <path id="Trazado_481" data-name="Trazado 481" d="M19.57,35.284a2.126,2.126,0,0,1-2.1-1.81L15.422,20a2.134,2.134,0,0,1,1.329-2.3l12.7-4.961A2.13,2.13,0,0,1,30.992,16.7L19.886,21.043l1.793,11.8a2.124,2.124,0,0,1-1.784,2.423,2.753,2.753,0,0,1-.324.021Z" transform="translate(45.156 41.011)" fill="#2e0063"/>
    <path id="Trazado_482" data-name="Trazado 482" d="M22.177,36.784a2.127,2.127,0,0,1-2.1-1.81L18.02,21.5a2.134,2.134,0,0,1,1.329-2.3l12.7-4.961A2.129,2.129,0,0,1,34.927,15.9l2.048,13.479a2.134,2.134,0,0,1-1.329,2.3l-12.7,4.961A2.136,2.136,0,0,1,22.177,36.784Zm.307-14.245,1.4,9.16,8.628-3.373-1.393-9.16Z" transform="translate(53.622 45.9)" fill="#2e0063"/>
    <path id="Trazado_483" data-name="Trazado 483" d="M7.137,27.655a2.129,2.129,0,0,1-1.065-3.973l18.44-10.647a2.129,2.129,0,1,1,2.129,3.688L8.2,27.369a2.1,2.1,0,0,1-1.065.285Z" transform="translate(11.286 41.55)" fill="#2e0063"/>
    <path id="Trazado_484" data-name="Trazado 484" d="M17.4,35.289a2.072,2.072,0,0,1-.324-.026,2.126,2.126,0,0,1-1.784-2.423l1.793-11.8L5.979,16.7a2.13,2.13,0,0,1,1.546-3.969l12.7,4.961A2.124,2.124,0,0,1,21.548,20L19.5,33.479a2.126,2.126,0,0,1-2.1,1.81Z" transform="translate(10.038 41.007)" fill="#2e0063"/>
    <path id="Trazado_485" data-name="Trazado 485" d="M16.365,36.784a2.12,2.12,0,0,1-.775-.145L2.9,31.678a2.124,2.124,0,0,1-1.329-2.3L3.615,15.9A2.129,2.129,0,0,1,6.494,14.23l12.7,4.961a2.124,2.124,0,0,1,1.329,2.3L18.473,34.974a2.127,2.127,0,0,1-2.108,1.81ZM6.034,28.33,14.662,31.7l1.4-9.165L7.426,19.166Z" transform="translate(0 45.9)" fill="#2e0063"/>
    <path id="Trazado_486" data-name="Trazado 486" d="M15.8,22.657a2.129,2.129,0,0,1-1.065-3.973L33.172,8.037A2.129,2.129,0,1,1,35.3,11.725L16.861,22.371a2.1,2.1,0,0,1-1.065.285Z" transform="translate(39.506 25.255)" fill="#2e0063"/>
    <path id="Trazado_487" data-name="Trazado 487" d="M30.222,28.781a2.153,2.153,0,0,1-.775-.145l-12.7-4.961a2.124,2.124,0,0,1-1.329-2.3L17.472,7.892A2.152,2.152,0,0,1,19.9,6.108a2.126,2.126,0,0,1,1.784,2.423l-1.793,11.8,11.107,4.344a2.127,2.127,0,0,1-.771,4.11Z" transform="translate(45.155 19.833)" fill="#2e0063"/>
    <path id="Trazado_488" data-name="Trazado 488" d="M32.825,27.284a2.12,2.12,0,0,1-.775-.145l-12.7-4.961a2.124,2.124,0,0,1-1.329-2.3L20.074,6.4A2.129,2.129,0,0,1,22.953,4.73l12.7,4.961A2.124,2.124,0,0,1,36.977,12L34.928,25.474a2.127,2.127,0,0,1-2.1,1.81ZM22.484,18.83,31.117,22.2l1.393-9.16L23.881,9.67Z" transform="translate(53.621 14.942)" fill="#2e0063"/>
  </g>
</svg>
