<svg xmlns="http://www.w3.org/2000/svg" xmlns:xlink="http://www.w3.org/1999/xlink" width="396.101" height="173.753" viewBox="0 0 396.101 173.753">
  <defs>
    <linearGradient id="linear-gradient" y1="0.206" x2="0.785" y2="0.206" gradientUnits="objectBoundingBox">
      <stop offset="0" stop-color="#792891"/>
      <stop offset="1" stop-color="#2e0063"/>
    </linearGradient>
    <linearGradient id="linear-gradient-2" x1="0.351" y1="0.515" x2="0.719" y2="0.442" gradientUnits="objectBoundingBox">
      <stop offset="0" stop-color="#cfff5b"/>
      <stop offset="1" stop-color="#83e578"/>
    </linearGradient>
    <linearGradient id="linear-gradient-3" x1="0.092" y1="0.519" x2="1.007" y2="0.476" gradientUnits="objectBoundingBox">
      <stop offset="0" stop-color="#cfff5b"/>
      <stop offset="1" stop-color="#a5e37d"/>
    </linearGradient>
  </defs>
  <g id="Jelpit_Logo" transform="translate(0 0)">
    <g id="Home---fase-2" transform="translate(0 0)">
      <g id="hero" transform="translate(0 0)">
        <g id="desktop-components-_-atoms-_-navigation-_-home-nav" data-name="desktop-components-/-atoms-/-navigation-/-home-nav">
          <g id="atoms-_-brand-_-logo-_-horizontal-_-color-bg" data-name="atoms-/-brand-/-logo-/-horizontal-/-color-bg">
            <g id="Group-7">
              <path id="Path-3" d="M.527,0Q0,15.659,0,31.548C0,47.437,11.966,173.753,150.34,173.753,287.3,173.753,373.086,33.269,376.733,0Z" transform="translate(0 0)" fill-rule="evenodd" fill="url(#linear-gradient)"/>
              <path id="Path" d="M381.853,0h9.178C390,9.059,383.487,24.529,373.266,41.025A297.65,297.65,0,0,1,328.44,96.389c-20.884,20.329-44.282,37.268-69.539,49.489-28.937,14-59.647,21.507-91.732,21.507-32.32,0-59.4-6.725-81.567-19.321a127.137,127.137,0,0,1-45.409-43.87A156.83,156.83,0,0,1,21.145,58.434l-.171-.7C18.267,46.507,16.94,35.823,16.94,29.55q0-13.812.437-27.441L17.453,0h9.232c-.338,9.724-.507,19.682-.507,29.55,0,5.521,1.236,15.474,3.775,26A147.856,147.856,0,0,0,48.018,99.266a117.916,117.916,0,0,0,42.134,40.728c20.74,11.783,46.247,18.118,77.017,18.118,30.648,0,60-7.171,87.721-20.587,24.318-11.768,46.916-28.126,67.119-47.793a288.4,288.4,0,0,0,43.413-53.6l.569-.924C375.127,20.3,380.914,7.287,381.826,0Z" transform="translate(5.07 0)" fill="#82e778"/>
              <g id="Logo" transform="translate(82.214 14.374)">
                <g id="Group" transform="translate(0 0)">
                  <g id="Group-14" transform="translate(64.753 19.277)">
                    <path id="Fill-1" d="M12.153,43.208a11.585,11.585,0,0,1-8.512-3.55A11.681,11.681,0,0,1,.1,31.135,3.052,3.052,0,0,1,1.014,28.9a3.086,3.086,0,0,1,2.255-.943A3.056,3.056,0,0,1,5.5,28.9a3.053,3.053,0,0,1,.914,2.232A5.494,5.494,0,0,0,8.1,35.2a5.476,5.476,0,0,0,4.055,1.691A5.478,5.478,0,0,0,16.208,35.2a5.45,5.45,0,0,0,1.66-4.034V3.246a3.006,3.006,0,0,1,.949-2.239,3.1,3.1,0,0,1,4.455.014,2.993,2.993,0,0,1,.934,2.224V31.162a11.592,11.592,0,0,1-3.544,8.5,11.644,11.644,0,0,1-8.509,3.547" transform="translate(-0.1 -0.071)" fill="#00e871" fill-rule="evenodd"/>
                    <path id="Fill-3" d="M28.022,21.414H46.9a9.962,9.962,0,0,0-18.88,0m9.454,19.323A15.86,15.86,0,0,1,25.951,36l0,0a16.316,16.316,0,0,1-3.469-5.112,15.917,15.917,0,0,1-1.291-6.3A15.74,15.74,0,0,1,25.949,13.1a16.44,16.44,0,0,1,5.19-3.476,15.978,15.978,0,0,1,6.337-1.292,15.785,15.785,0,0,1,11.5,4.767,16.165,16.165,0,0,1,3.472,5.172,15.98,15.98,0,0,1,1.29,6.32,3.051,3.051,0,0,1-.913,2.231,3.088,3.088,0,0,1-2.255.943H28.026a9.636,9.636,0,0,0,3.293,4.555,9.8,9.8,0,0,0,6.157,2.1c3.651,0,6.5-1.121,8.461-3.331A2.959,2.959,0,0,1,48.1,30.036a3.138,3.138,0,0,1,2.281.775,3.153,3.153,0,0,1,.246,4.469c-3.195,3.619-7.621,5.456-13.154,5.456" transform="translate(6.212 2.4)" fill="#00e871" fill-rule="evenodd"/>
                    <path id="Fill-5" d="M52.155,43.176a3.136,3.136,0,0,1-2.248-.908,3.058,3.058,0,0,1-.92-2.239V3.353A3.052,3.052,0,0,1,49.9,1.121a3.136,3.136,0,0,1,4.483,0A3.052,3.052,0,0,1,55.3,3.353V40.029a3.051,3.051,0,0,1-.914,2.231,3.11,3.11,0,0,1-2.228.915" transform="translate(14.532 -0.039)" fill="#00e871" fill-rule="evenodd"/>
                    <path id="Fill-7" d="M74.009,14.656a9.089,9.089,0,0,0-6.791,2.879,9.734,9.734,0,0,0-2.826,7,9.7,9.7,0,0,0,2.828,6.978,9.448,9.448,0,0,0,13.58,0,9.749,9.749,0,0,0,2.8-6.976,9.786,9.786,0,0,0-2.8-7.008,9.086,9.086,0,0,0-6.788-2.876M61.25,51.305A3.134,3.134,0,0,1,59,50.4a3.058,3.058,0,0,1-.921-2.239V11.482A3.052,3.052,0,0,1,59,9.25a3.136,3.136,0,0,1,4.483,0,3.053,3.053,0,0,1,.914,2.232V11.6a15.679,15.679,0,0,1,20.871,1.484A15.839,15.839,0,0,1,89.91,24.539a15.806,15.806,0,0,1-4.646,11.432,15.715,15.715,0,0,1-20.871,1.456V48.159a3.052,3.052,0,0,1-.914,2.231,3.109,3.109,0,0,1-2.228.915" transform="translate(17.255 2.394)" fill="#00e871" fill-rule="evenodd"/>
                    <path id="Path-2" data-name="Path" d="M89.533,8.01a3.886,3.886,0,0,1-1.924-.517A3.73,3.73,0,0,1,86.16,6.043a3.9,3.9,0,0,1-.515-1.927,3.986,3.986,0,0,1,.513-1.938A3.6,3.6,0,0,1,87.633.717a3.872,3.872,0,0,1,3.79,0,3.713,3.713,0,0,1,1.467,1.452,3.844,3.844,0,0,1,.016,3.872,3.738,3.738,0,0,1-1.449,1.451,3.889,3.889,0,0,1-1.924.516" transform="translate(25.505 -0.026)" fill="#00e871" fill-rule="evenodd"/>
                    <path id="Path-3-2" data-name="Path" d="M89.368,40.736a3.041,3.041,0,0,1-2.228-.915A3,3,0,0,1,86.2,37.59V11.5a3.005,3.005,0,0,1,.949-2.239,3.1,3.1,0,0,1,4.455.015,2.992,2.992,0,0,1,.934,2.224V37.59a3.169,3.169,0,0,1-3.169,3.147" transform="translate(25.67 2.4)" fill="#00e871" fill-rule="evenodd"/>
                    <path id="Fill-11" d="M102.884,43.176a3.041,3.041,0,0,1-2.228-.915,3,3,0,0,1-.941-2.231V17.116H96.269a3.084,3.084,0,0,1-2.256-.943,3.182,3.182,0,0,1,0-4.462,3.085,3.085,0,0,1,2.255-.943h3.446V3.353a3.006,3.006,0,0,1,.949-2.239,3.1,3.1,0,0,1,4.455.014,3.047,3.047,0,0,1,.906,2.225v7.416H109.5a3,3,0,0,1,2.235.95,3.182,3.182,0,0,1-.007,4.455,2.988,2.988,0,0,1-2.228.943h-3.473V40.029a3.122,3.122,0,0,1-3.141,3.147" transform="translate(27.736 -0.039)" fill="#00e871" fill-rule="evenodd"/>
                  </g>
                  <path id="Fill-15" d="M15.322,12.662a5.52,5.52,0,0,0-3.069,3.673h0a6.4,6.4,0,0,0,.837,4.773h0c1.619,2.553,4.492,3.863,7.084,5.19h0a117.493,117.493,0,0,1,14.454,8.154h0q.439.31.87.63h0a62.813,62.813,0,0,1-.511,8.051h0a97.56,97.56,0,0,1-3.825,15.849h0l-1.188.094h0c-2.555.208-5.1.453-7.642.8h0A38.553,38.553,0,0,0,9.356,63.753h0A17.774,17.774,0,0,0,.6,73.442h0a11.363,11.363,0,0,0-.25,6.423h0a11.5,11.5,0,0,0,3.1,5.18h0A13.217,13.217,0,0,0,8.9,88.24h0a13.555,13.555,0,0,0,7.232,0h0A20.335,20.335,0,0,0,26.159,81.9h0A34.667,34.667,0,0,0,31.9,72.112h0c.694-1.688,1.285-3.414,1.874-5.141h0q.558-1.636,1.106-3.276h0a31.71,31.71,0,0,0,5.468-.862h0a12.543,12.543,0,0,0,6.784-4.394h0a13.806,13.806,0,0,0,1.9-3.405h0a13.9,13.9,0,0,0,.816-3.515h0a16.056,16.056,0,0,0-.823-6.977h0a22.9,22.9,0,0,0-3.479-6.5h0a33.288,33.288,0,0,0-5.094-5.374h0q-.035-.849-.093-1.7h0A3.651,3.651,0,0,0,40.3,30.5h0l-.394-3h0a20.973,20.973,0,0,0-.977-4.738h0a15.047,15.047,0,0,0-3.505-5.5h0a16.683,16.683,0,0,0-5.065-3.374h0a23.84,23.84,0,0,0-3.381-1.2h0a29.713,29.713,0,0,0-3.689-.681h0A25.234,25.234,0,0,0,20,11.763h0a11.22,11.22,0,0,0-4.677.9m18.1,15.05c-2.252-1.351-4.572-2.583-6.906-3.785h0c-2.311-1.191-4.691-2.291-6.937-3.6h0c-.414-.242-.817-.5-1.205-.779h0a7.846,7.846,0,0,1-.906-.88h0a4.87,4.87,0,0,1-.258-.441h0q-.064-.194-.11-.392h0c0-.079,0-.158,0-.237h0c.011-.045.027-.091.041-.136h0c.011-.02.026-.039.038-.058h0c.04-.041.083-.08.125-.12h0c.106-.067.215-.13.327-.188h0a6.88,6.88,0,0,1,1.043-.269h0a18.989,18.989,0,0,1,4.189.142h0A22.724,22.724,0,0,1,28.1,18.338h0a15.867,15.867,0,0,1,2.819,1.621h0A12.973,12.973,0,0,1,32.8,21.818h0a12.349,12.349,0,0,1,1.275,2.2h0a14.06,14.06,0,0,1,.774,3.049h0q.108.834.219,1.668h0q-.816-.524-1.648-1.024m5.839,20.095a71.757,71.757,0,0,0,1.088-8.273h0q.516.582,1,1.194h0a22.3,22.3,0,0,1,2.543,4.3h0a16.511,16.511,0,0,1,.966,3.486h0a13.594,13.594,0,0,1,.023,2.734h0a11.779,11.779,0,0,1-.634,2.357h0a10.765,10.765,0,0,1-1.033,1.775h0a9.949,9.949,0,0,1-1.251,1.255h0a10.042,10.042,0,0,1-1.622.942h0a17.242,17.242,0,0,1-3.659.9h0l-.131.016h0a100.847,100.847,0,0,0,2.71-10.679M11.385,83.675a10.583,10.583,0,0,1-1.947-.539h0a10.982,10.982,0,0,1-1.8-1.053h0a10.577,10.577,0,0,1-1.391-1.39h0a9.278,9.278,0,0,1-.841-1.432h0a8.06,8.06,0,0,1-.364-1.332h0a9.065,9.065,0,0,1,0-1.634h0A10.519,10.519,0,0,1,5.59,74.32h0a13.11,13.11,0,0,1,1.325-2.247h0A15.818,15.818,0,0,1,9.31,69.7h0a22.729,22.729,0,0,1,4.357-2.481h0a41.35,41.35,0,0,1,9.849-2.486h0c1.978-.257,3.963-.439,5.95-.6h0q-.3.889-.6,1.777h0c-.574,1.681-1.16,3.355-1.837,5h0a32.531,32.531,0,0,1-3.794,6.731h0A20.564,20.564,0,0,1,20.1,80.8h0A18.008,18.008,0,0,1,16.7,82.777h0a15.341,15.341,0,0,1-3.07.88h0a11.431,11.431,0,0,1-1.224.067h0q-.513,0-1.026-.05" transform="translate(0 3.521)" fill-rule="evenodd" fill="url(#linear-gradient-2)"/>
                  <path id="Fill-18" d="M19.7,0a5.986,5.986,0,0,0-5.981,5.991h0A5.986,5.986,0,0,0,19.7,11.983h0a5.986,5.986,0,0,0,5.981-5.991h0A5.986,5.986,0,0,0,19.7,0Z" transform="translate(4.105 0)" fill-rule="evenodd" fill="url(#linear-gradient-3)"/>
                </g>
              </g>
            </g>
          </g>
        </g>
      </g>
    </g>
  </g>
</svg>
