<svg xmlns="http://www.w3.org/2000/svg" width="399.645" height="997.003" viewBox="0 0 399.645 997.003">
  <g id="tree" transform="translate(9.662 4.394)" opacity="0.5">
    <g id="Grupo_31" data-name="Grupo 31" transform="translate(-8.209 -4.394)">
      <g id="Grupo_28" data-name="Grupo 28" transform="translate(69.123)">
        <g id="Grupo_17" data-name="Grupo 17" transform="translate(0 457.291)">
          <path id="Trazado_36" data-name="Trazado 36" d="M-8.79,5.364A4.008,4.008,0,0,0-4.743,9.411,4.059,4.059,0,0,0-.7,5.364,4.043,4.043,0,0,0-4.743,1.4,3.991,3.991,0,0,0-8.79,5.364Z" transform="translate(8.79 10.096)" fill="#fff"/>
          <path id="Trazado_37" data-name="Trazado 37" d="M-8.79,5.3A3.991,3.991,0,0,0-4.743,9.269,4.043,4.043,0,0,0-.7,5.3,4.059,4.059,0,0,0-4.743,1.256,4.008,4.008,0,0,0-8.79,5.3Z" transform="translate(8.79 -1.256)" fill="#fff"/>
        </g>
        <g id="Grupo_18" data-name="Grupo 18" transform="translate(0 403.546)">
          <path id="Trazado_38" data-name="Trazado 38" d="M-8.79,4.7A4.008,4.008,0,0,0-4.743,8.747,4.059,4.059,0,0,0-.7,4.7,4.043,4.043,0,0,0-4.743.734,3.991,3.991,0,0,0-8.79,4.7Z" transform="translate(8.79 10.76)" fill="#fff"/>
          <path id="Trazado_39" data-name="Trazado 39" d="M-8.79,4.558A4.008,4.008,0,0,0-4.743,8.605,4.059,4.059,0,0,0-.7,4.558,4.043,4.043,0,0,0-4.743.592,3.991,3.991,0,0,0-8.79,4.558Z" transform="translate(8.79 -0.592)" fill="#fff"/>
        </g>
        <g id="Grupo_19" data-name="Grupo 19" transform="translate(0 349.721)">
          <path id="Trazado_40" data-name="Trazado 40" d="M-8.79,4.116A4.008,4.008,0,0,0-4.743,8.163,4.059,4.059,0,0,0-.7,4.116,4.112,4.112,0,0,0-4.743.069,4.059,4.059,0,0,0-8.79,4.116Z" transform="translate(8.79 11.425)" fill="#fff"/>
          <path id="Trazado_41" data-name="Trazado 41" d="M-8.79,3.974A4.008,4.008,0,0,0-4.743,8.021,4.059,4.059,0,0,0-.7,3.974,4.112,4.112,0,0,0-4.743-.073,4.059,4.059,0,0,0-8.79,3.974Z" transform="translate(8.79 0.073)" fill="#fff"/>
        </g>
        <g id="Grupo_20" data-name="Grupo 20" transform="translate(0 295.976)">
          <path id="Trazado_42" data-name="Trazado 42" d="M-8.79,3.452A4.008,4.008,0,0,0-4.743,7.5,4.059,4.059,0,0,0-.7,3.452,4.059,4.059,0,0,0-4.743-.6,4.008,4.008,0,0,0-8.79,3.452Z" transform="translate(8.79 12.089)" fill="#fff"/>
          <path id="Trazado_43" data-name="Trazado 43" d="M-8.79,3.31A4.008,4.008,0,0,0-4.743,7.357,4.059,4.059,0,0,0-.7,3.31,4.112,4.112,0,0,0-4.743-.737,4.059,4.059,0,0,0-8.79,3.31Z" transform="translate(8.79 0.737)" fill="#fff"/>
        </g>
        <g id="Grupo_21" data-name="Grupo 21" transform="translate(0 242.231)">
          <path id="Trazado_44" data-name="Trazado 44" d="M-8.79,2.788A4.059,4.059,0,0,0-4.743,6.835,4.112,4.112,0,0,0-.7,2.788,4.059,4.059,0,0,0-4.743-1.259,4.008,4.008,0,0,0-8.79,2.788Z" transform="translate(8.79 12.753)" fill="#fff"/>
          <path id="Trazado_45" data-name="Trazado 45" d="M-8.79,2.646A4.008,4.008,0,0,0-4.743,6.693,4.059,4.059,0,0,0-.7,2.646,4.112,4.112,0,0,0-4.743-1.4,4.059,4.059,0,0,0-8.79,2.646Z" transform="translate(8.79 1.401)" fill="#fff"/>
        </g>
        <g id="Grupo_22" data-name="Grupo 22" transform="translate(0 188.487)">
          <path id="Trazado_46" data-name="Trazado 46" d="M-8.79,2.124A3.991,3.991,0,0,0-4.743,6.09,4.043,4.043,0,0,0-.7,2.124,4.059,4.059,0,0,0-4.743-1.923,4.008,4.008,0,0,0-8.79,2.124Z" transform="translate(8.79 13.417)" fill="#fff"/>
          <path id="Trazado_47" data-name="Trazado 47" d="M-8.79,1.982A4.059,4.059,0,0,0-4.743,6.029,4.112,4.112,0,0,0-.7,1.982,4.059,4.059,0,0,0-4.743-2.065,4.008,4.008,0,0,0-8.79,1.982Z" transform="translate(8.79 2.065)" fill="#fff"/>
        </g>
        <g id="Grupo_23" data-name="Grupo 23" transform="translate(0 134.742)">
          <path id="Trazado_48" data-name="Trazado 48" d="M-8.79,1.379A4.008,4.008,0,0,0-4.743,5.426,4.059,4.059,0,0,0-.7,1.379,4.043,4.043,0,0,0-4.743-2.587,3.991,3.991,0,0,0-8.79,1.379Z" transform="translate(8.79 14.081)" fill="#fff"/>
          <path id="Trazado_49" data-name="Trazado 49" d="M-8.79,1.318A3.991,3.991,0,0,0-4.743,5.284,4.043,4.043,0,0,0-.7,1.318,4.059,4.059,0,0,0-4.743-2.729,4.008,4.008,0,0,0-8.79,1.318Z" transform="translate(8.79 2.729)" fill="#fff"/>
        </g>
        <g id="Grupo_24" data-name="Grupo 24" transform="translate(0 80.997)">
          <path id="Trazado_50" data-name="Trazado 50" d="M-8.79.8A4.008,4.008,0,0,0-4.743,4.842,4.059,4.059,0,0,0-.7.8,4.112,4.112,0,0,0-4.743-3.252,4.059,4.059,0,0,0-8.79.8Z" transform="translate(8.79 14.665)" fill="#fff"/>
          <path id="Trazado_51" data-name="Trazado 51" d="M-8.79.654A3.991,3.991,0,0,0-4.743,4.62,4.043,4.043,0,0,0-.7.654,4.059,4.059,0,0,0-4.743-3.393,4.008,4.008,0,0,0-8.79.654Z" transform="translate(8.79 3.393)" fill="#fff"/>
        </g>
        <g id="Grupo_25" data-name="Grupo 25" transform="translate(0 27.253)">
          <path id="Trazado_52" data-name="Trazado 52" d="M-8.79.131A4.008,4.008,0,0,0-4.743,4.178,4.059,4.059,0,0,0-.7.131,4.112,4.112,0,0,0-4.743-3.916,4.059,4.059,0,0,0-8.79.131Z" transform="translate(8.79 15.329)" fill="#fff"/>
          <path id="Trazado_53" data-name="Trazado 53" d="M-8.79-.091A4.008,4.008,0,0,0-4.743,3.956,4.059,4.059,0,0,0-.7-.091,4.043,4.043,0,0,0-4.743-4.057,3.991,3.991,0,0,0-8.79-.091Z" transform="translate(8.79 4.057)" fill="#fff"/>
        </g>
        <g id="Grupo_26" data-name="Grupo 26" transform="translate(2.182)">
          <rect id="Rectángulo_19" data-name="Rectángulo 19" width="3.683" height="574.023" fill="#fff"/>
        </g>
        <g id="Grupo_27" data-name="Grupo 27" transform="translate(0 511.035)">
          <path id="Trazado_54" data-name="Trazado 54" d="M-8.79,6.109a4.059,4.059,0,0,0,4.047,4.047A4.112,4.112,0,0,0-.7,6.109,4.059,4.059,0,0,0-4.743,2.062,4.008,4.008,0,0,0-8.79,6.109Z" transform="translate(8.79 9.432)" fill="#fff"/>
          <path id="Trazado_55" data-name="Trazado 55" d="M-8.79,5.967a4.059,4.059,0,0,0,4.047,4.047A4.112,4.112,0,0,0-.7,5.967,4.059,4.059,0,0,0-4.743,1.92,4.008,4.008,0,0,0-8.79,5.967Z" transform="translate(8.79 -1.92)" fill="#fff"/>
        </g>
      </g>
      <path id="Trazado_56" data-name="Trazado 56" d="M27.78,18.48a6.871,6.871,0,0,0-2.1-4.856,6.453,6.453,0,0,0-3.157-1.781,9.129,9.129,0,0,0-3.966-6.394A15.227,15.227,0,0,0,9.407,2.535,15.3,15.3,0,0,0,.179,5.449a9.4,9.4,0,0,0-3.966,6.394,6.453,6.453,0,0,0-3.157,1.781h0A7.143,7.143,0,0,0-8.967,18.48v7.366l2.023-.486v1.457H26.809l-.324-1.3,1.3.324Z" transform="translate(63.764 558.279)" fill="#fff"/>
      <g id="Grupo_30" data-name="Grupo 30" transform="translate(0 581.535)">
        <path id="Trazado_57" data-name="Trazado 57" d="M-9.644,76.042a73.033,73.033,0,0,0,27.358,56.9v.243c2.347,1.862,4.695,3.48,7.285,5.18h.243a64.756,64.756,0,0,0,20.316,8.661,65.171,65.171,0,0,0,17.807,2.347A67.8,67.8,0,0,0,89.1,144.437a69.91,69.91,0,0,0,21.611-12.384,21.463,21.463,0,0,0,2.995-3.076l.243-.243.728-.486a36.372,36.372,0,0,0,2.995-3.238A72.064,72.064,0,0,0,136.7,76.042v-.89A72.116,72.116,0,0,0,122.37,32.739l-1.133-1.376-.486-.728a42.008,42.008,0,0,0-3.966-4.452,18.778,18.778,0,0,0-4.695-4.452A69.361,69.361,0,0,0,80.038,4.653a51.5,51.5,0,0,0-9.389-1.376c-2.347-.243-4.937-.486-7.285-.486A72.09,72.09,0,0,0,.878,38.567a62.953,62.953,0,0,0-7.285,15.7A74.6,74.6,0,0,0-9.644,76.042Zm26.872,53.664A70.593,70.593,0,0,1-7.3,76.042,68.6,68.6,0,0,1-4.059,55,64.808,64.808,0,0,1,4.6,36.462,70.957,70.957,0,0,1,63.365,5.138a27.691,27.691,0,0,1,6.313.486A53.511,53.511,0,0,1,83.519,8.133,64.967,64.967,0,0,1,107.153,20.6l1.214.648A61.385,61.385,0,0,1,119.78,33.225a67.12,67.12,0,0,1,12.87,28.086,46.456,46.456,0,0,1,1.457,11.655,13.5,13.5,0,0,1,.243,3.076,70.167,70.167,0,0,1-18.293,47.269,54.141,54.141,0,0,1-6.556,6.394,65.256,65.256,0,0,1-22.259,13.112,68.592,68.592,0,0,1-23.878,4.209A72.152,72.152,0,0,1,47.5,145.166a66.063,66.063,0,0,1-18.535-7.285A52.7,52.7,0,0,1,17.228,129.706Z" transform="translate(9.644 -2.791)" fill="#fff"/>
        <g id="Grupo_29" data-name="Grupo 29" transform="translate(3.238 0.486)">
          <path id="Trazado_58" data-name="Trazado 58" d="M-.55,18.653l3.8,7.706,3.8-7.706,8.507-1.238-6.152-6,1.449-8.474L3.254,6.949-4.354,2.943-2.9,11.417l-6.158,6Z" transform="translate(53.433 8.85)" fill="#fff"/>
          <path id="Trazado_59" data-name="Trazado 59" d="M15.1,18.363l-6.152-6L10.4,3.9l-7.608,4-7.6-4,1.457,8.466-6.158,6L-1.006,19.6l3.8,7.706L6.6,19.6Z" transform="translate(16.98 85.306)" fill="#fff"/>
          <path id="Trazado_60" data-name="Trazado 60" d="M5.828,4.2.4,7.035-4.937,4.2-3.8,10.353l-4.452,4.209,6.071.89.728,1.457,1.214,2.347a21.463,21.463,0,0,0,2.995-3.076l.243-.243.243-.486h.486a36.376,36.376,0,0,0,2.995-3.238L4.856,10.353Z" transform="translate(117.364 109.52)" fill="#fff"/>
          <path id="Trazado_61" data-name="Trazado 61" d="M.145,6.134-5.254,3.3l1.028,6.006L-8.6,13.565l6.038.874,2.7,5.472,2.7-5.472,6.03-.874L4.516,9.307,5.536,3.3Z" transform="translate(90.149 37.517)" fill="#fff"/>
          <path id="Trazado_62" data-name="Trazado 62" d="M1.448,4.33-3.975,7.082-9.317,4.33l.4,2.347.486,3.238v.243c2.347,1.862,4.695,3.48,7.285,5.18H-.9l5.585-.729L.477,10.158Z" transform="translate(32.547 119.752)" fill="#fff"/>
          <path id="Trazado_63" data-name="Trazado 63" d="M-.04,14.452,2.712,9.11,8.62,8.139l-.486-.486-3.48-3.48A51.5,51.5,0,0,0-4.735,2.8l.243,1.133L-5.706,5.144-8.7,8.139l6.071.971Z" transform="translate(81.79 -2.797)" fill="#fff"/>
          <path id="Trazado_64" data-name="Trazado 64" d="M.223,6.089-2.61,4.713-4.714,3.5l.971,5.909-4.209,4.452,5.828.648.971,1.862,1.862,3.8.728-1.619A71.475,71.475,0,0,0,.223,6.089Z" transform="translate(141.666 53.321)" fill="#fff"/>
          <path id="Trazado_65" data-name="Trazado 65" d="M14.19,15.126,10.224,11.4v-.728A18.778,18.778,0,0,0,5.53,6.223l-1.376.728L1.807,5.737.592,5.089l-4.209-2.1L-2,11.4l-6.313,5.828L.35,18.607l3.8,7.77,3.723-7.77,5.342-.89,2.59-.486-1.133-1.376Z" transform="translate(112.967 12.232)" fill="#fff"/>
          <path id="Trazado_66" data-name="Trazado 66" d="M18.74,3.618,8.355,9.073-2.029,3.618-.054,15.184l-8.4,8.191L3.159,25.067l5.2,10.514,5.2-10.514,11.607-1.692-8.4-8.191Z" transform="translate(101.38 62.802)" fill="#fff"/>
          <path id="Trazado_67" data-name="Trazado 67" d="M14.516,23.075,6.1,14.9,7.96,3.164,1.4,6.644l-3.723,2.1A62.952,62.952,0,0,0-9.6,24.451l2.1.243.243.486,4.937,10.037,5.18-10.522Z" transform="translate(9.604 26.541)" fill="#fff"/>
          <path id="Trazado_68" data-name="Trazado 68" d="M22.993,34.841l17.014-2.477-12.3-12L30.6,3.428l-15.209,8-15.217-8L3.082,20.369l-12.311,12L7.784,34.841,15.393,50.26Z" transform="translate(39.562 47.638)" fill="#fff"/>
          <path id="Trazado_69" data-name="Trazado 69" d="M26.409,21.151,29.242,4.234,14.025,12.247-.949,4.234,1.8,21.151l-8.822,8.661-1.943,1.862A65.172,65.172,0,0,0,8.845,34.02a67.8,67.8,0,0,0,25.739-4.937l-1.862-1.619Z" transform="translate(60.926 112.078)" fill="#fff"/>
        </g>
      </g>
    </g>
    <g id="Grupo_46" data-name="Grupo 46" transform="translate(252.339 16.983)">
      <g id="Grupo_43" data-name="Grupo 43" transform="translate(58.763)">
        <g id="Grupo_32" data-name="Grupo 32" transform="translate(0 388.645)">
          <path id="Trazado_70" data-name="Trazado 70" d="M-5.7,4.193a3.42,3.42,0,0,0,3.4,3.4,3.438,3.438,0,0,0,3.48-3.4A3.438,3.438,0,0,0-2.3.793,3.42,3.42,0,0,0-5.7,4.193Z" transform="translate(5.699 9.001)" fill="#fff"/>
          <path id="Trazado_71" data-name="Trazado 71" d="M-5.7,4.152a3.42,3.42,0,0,0,3.4,3.4,3.438,3.438,0,0,0,3.48-3.4A3.455,3.455,0,0,0-2.3.672,3.438,3.438,0,0,0-5.7,4.152Z" transform="translate(5.699 -0.672)" fill="#fff"/>
        </g>
        <g id="Grupo_33" data-name="Grupo 33" transform="translate(0 342.994)">
          <path id="Trazado_72" data-name="Trazado 72" d="M-5.7,3.708a3.42,3.42,0,0,0,3.4,3.4,3.438,3.438,0,0,0,3.48-3.4A3.455,3.455,0,0,0-2.3.228,3.438,3.438,0,0,0-5.7,3.708Z" transform="translate(5.699 9.485)" fill="#fff"/>
          <path id="Trazado_73" data-name="Trazado 73" d="M-5.7,3.508a3.42,3.42,0,0,0,3.4,3.4,3.438,3.438,0,0,0,3.48-3.4A3.438,3.438,0,0,0-2.3.108,3.42,3.42,0,0,0-5.7,3.508Z" transform="translate(5.699 -0.108)" fill="#fff"/>
        </g>
        <g id="Grupo_34" data-name="Grupo 34" transform="translate(0 297.263)">
          <path id="Trazado_74" data-name="Trazado 74" d="M-5.7,3.064a3.42,3.42,0,0,0,3.4,3.4,3.438,3.438,0,0,0,3.48-3.4A3.438,3.438,0,0,0-2.3-.336,3.42,3.42,0,0,0-5.7,3.064Z" transform="translate(5.699 10.13)" fill="#fff"/>
          <path id="Trazado_75" data-name="Trazado 75" d="M-5.7,3.023a3.42,3.42,0,0,0,3.4,3.4,3.438,3.438,0,0,0,3.48-3.4A3.455,3.455,0,0,0-2.3-.457,3.438,3.438,0,0,0-5.7,3.023Z" transform="translate(5.699 0.457)" fill="#fff"/>
        </g>
        <g id="Grupo_35" data-name="Grupo 35" transform="translate(0 251.612)">
          <path id="Trazado_76" data-name="Trazado 76" d="M-5.7,2.5a3.438,3.438,0,0,0,3.4,3.48A3.455,3.455,0,0,0,1.181,2.5,3.438,3.438,0,0,0-2.3-.9,3.42,3.42,0,0,0-5.7,2.5Z" transform="translate(5.699 10.614)" fill="#fff"/>
          <path id="Trazado_77" data-name="Trazado 77" d="M-5.7,2.379a3.42,3.42,0,0,0,3.4,3.4,3.438,3.438,0,0,0,3.48-3.4,3.438,3.438,0,0,0-3.48-3.4A3.42,3.42,0,0,0-5.7,2.379Z" transform="translate(5.699 1.021)" fill="#fff"/>
        </g>
        <g id="Grupo_36" data-name="Grupo 36" transform="translate(0 205.881)">
          <path id="Trazado_78" data-name="Trazado 78" d="M-5.7,1.935a3.42,3.42,0,0,0,3.4,3.4,3.438,3.438,0,0,0,3.48-3.4,3.438,3.438,0,0,0-3.48-3.4A3.42,3.42,0,0,0-5.7,1.935Z" transform="translate(5.699 11.259)" fill="#fff"/>
          <path id="Trazado_79" data-name="Trazado 79" d="M-5.7,1.894a3.42,3.42,0,0,0,3.4,3.4,3.438,3.438,0,0,0,3.48-3.4A3.455,3.455,0,0,0-2.3-1.586,3.438,3.438,0,0,0-5.7,1.894Z" transform="translate(5.699 1.586)" fill="#fff"/>
        </g>
        <g id="Grupo_37" data-name="Grupo 37" transform="translate(0 160.23)">
          <path id="Trazado_80" data-name="Trazado 80" d="M-5.7,1.45a3.42,3.42,0,0,0,3.4,3.4,3.438,3.438,0,0,0,3.48-3.4A3.455,3.455,0,0,0-2.3-2.03,3.438,3.438,0,0,0-5.7,1.45Z" transform="translate(5.699 11.743)" fill="#fff"/>
          <path id="Trazado_81" data-name="Trazado 81" d="M-5.7,1.25a3.42,3.42,0,0,0,3.4,3.4,3.438,3.438,0,0,0,3.48-3.4A3.438,3.438,0,0,0-2.3-2.15,3.42,3.42,0,0,0-5.7,1.25Z" transform="translate(5.699 2.15)" fill="#fff"/>
        </g>
        <g id="Grupo_38" data-name="Grupo 38" transform="translate(0 114.499)">
          <path id="Trazado_82" data-name="Trazado 82" d="M-5.7.806a3.42,3.42,0,0,0,3.4,3.4,3.438,3.438,0,0,0,3.48-3.4,3.438,3.438,0,0,0-3.48-3.4A3.42,3.42,0,0,0-5.7.806Z" transform="translate(5.699 12.388)" fill="#fff"/>
          <path id="Trazado_83" data-name="Trazado 83" d="M-5.7.765a3.42,3.42,0,0,0,3.4,3.4,3.438,3.438,0,0,0,3.48-3.4A3.455,3.455,0,0,0-2.3-2.715,3.438,3.438,0,0,0-5.7.765Z" transform="translate(5.699 2.715)" fill="#fff"/>
        </g>
        <g id="Grupo_39" data-name="Grupo 39" transform="translate(0 68.848)">
          <path id="Trazado_84" data-name="Trazado 84" d="M-5.7.24a3.438,3.438,0,0,0,3.4,3.48A3.455,3.455,0,0,0,1.181.24a3.438,3.438,0,0,0-3.48-3.4A3.42,3.42,0,0,0-5.7.24Z" transform="translate(5.699 12.872)" fill="#fff"/>
          <path id="Trazado_85" data-name="Trazado 85" d="M-5.7.121a3.42,3.42,0,0,0,3.4,3.4,3.438,3.438,0,0,0,3.48-3.4,3.438,3.438,0,0,0-3.48-3.4A3.42,3.42,0,0,0-5.7.121Z" transform="translate(5.699 3.279)" fill="#fff"/>
        </g>
        <g id="Grupo_40" data-name="Grupo 40" transform="translate(0 23.117)">
          <path id="Trazado_86" data-name="Trazado 86" d="M-5.7-.323a3.42,3.42,0,0,0,3.4,3.4,3.438,3.438,0,0,0,3.48-3.4,3.438,3.438,0,0,0-3.48-3.4A3.42,3.42,0,0,0-5.7-.323Z" transform="translate(5.699 13.517)" fill="#fff"/>
          <path id="Trazado_87" data-name="Trazado 87" d="M-5.7-.364a3.42,3.42,0,0,0,3.4,3.4,3.438,3.438,0,0,0,3.48-3.4A3.455,3.455,0,0,0-2.3-3.844,3.438,3.438,0,0,0-5.7-.364Z" transform="translate(5.699 3.844)" fill="#fff"/>
        </g>
        <g id="Grupo_41" data-name="Grupo 41" transform="translate(1.874)">
          <rect id="Rectángulo_20" data-name="Rectángulo 20" width="3.124" height="487.878" fill="#fff"/>
        </g>
        <g id="Grupo_42" data-name="Grupo 42" transform="translate(0 434.376)">
          <path id="Trazado_88" data-name="Trazado 88" d="M-5.7,4.837a3.42,3.42,0,0,0,3.4,3.4,3.438,3.438,0,0,0,3.48-3.4A3.455,3.455,0,0,0-2.3,1.357,3.438,3.438,0,0,0-5.7,4.837Z" transform="translate(5.699 8.356)" fill="#fff"/>
          <path id="Trazado_89" data-name="Trazado 89" d="M-5.7,4.637a3.42,3.42,0,0,0,3.4,3.4,3.438,3.438,0,0,0,3.48-3.4,3.438,3.438,0,0,0-3.48-3.4A3.42,3.42,0,0,0-5.7,4.637Z" transform="translate(5.699 -1.237)" fill="#fff"/>
        </g>
      </g>
      <path id="Trazado_90" data-name="Trazado 90" d="M25.313,15.357a5.809,5.809,0,0,0-1.7-4.128,5.943,5.943,0,0,0-2.671-1.538,8.2,8.2,0,0,0-3.4-5.423A12.992,12.992,0,0,0,9.692,1.759a12.923,12.923,0,0,0-7.77,2.509,8.2,8.2,0,0,0-3.4,5.423,5.545,5.545,0,0,0-2.671,1.538h0a5.809,5.809,0,0,0-1.7,4.128v6.232l1.7-.4V22.4H24.5l-.243-1.052,1.052.243Z" transform="translate(52.471 474.868)" fill="#fff"/>
      <g id="Grupo_45" data-name="Grupo 45" transform="translate(0 494.272)">
        <path id="Trazado_91" data-name="Trazado 91" d="M-6.425,64.22a62.155,62.155,0,0,0,23.311,48.4v.162a56.13,56.13,0,0,0,6.152,4.371H23.2a53.088,53.088,0,0,0,17.321,7.366,55.1,55.1,0,0,0,15.136,2.024,58.153,58.153,0,0,0,21.935-4.209,58.917,58.917,0,0,0,18.293-10.522,19.581,19.581,0,0,0,2.59-2.59l.162-.243.648-.4c.971-.971,1.781-1.781,2.59-2.752a61.533,61.533,0,0,0,16.107-41.6v-.809a57.971,57.971,0,0,0-1.052-10.522,60.786,60.786,0,0,0-11.089-25.5l-.971-1.133-.4-.648a38,38,0,0,0-3.4-3.8A15.653,15.653,0,0,0,97.1,18.084,58.9,58.9,0,0,0,69.821,3.515a50.285,50.285,0,0,0-8.013-1.133,51.2,51.2,0,0,0-6.152-.4,61.279,61.279,0,0,0-53.1,30.434A54.885,54.885,0,0,0-3.592,45.685,61.6,61.6,0,0,0-6.425,64.22Zm22.906,45.57A60,60,0,0,1-4.4,64.22,58.7,58.7,0,0,1-1.65,46.333a55.893,55.893,0,0,1,7.366-15.7A60.432,60.432,0,0,1,55.657,3.92a24.864,24.864,0,0,1,5.423.4A48.437,48.437,0,0,1,72.816,6.51a54.385,54.385,0,0,1,20.073,10.6l.971.567A55.093,55.093,0,0,1,103.654,27.8a57.553,57.553,0,0,1,10.927,23.878A41.382,41.382,0,0,1,115.8,61.63a13.927,13.927,0,0,1,.162,2.59,59.825,59.825,0,0,1-15.541,40.228,48.707,48.707,0,0,1-5.5,5.342,55.553,55.553,0,0,1-18.94,11.17,58.287,58.287,0,0,1-20.316,3.561A56.718,56.718,0,0,1,42.139,122.9a50.834,50.834,0,0,1-15.7-6.151A41.66,41.66,0,0,1,16.481,109.79Z" transform="translate(6.425 -1.977)" fill="#fff"/>
        <g id="Grupo_44" data-name="Grupo 44" transform="translate(2.833 0.405)">
          <path id="Trazado_92" data-name="Trazado 92" d="M1.31,15.453,4.548,22l3.23-6.548L15.005,14.4,9.778,9.3l1.229-7.2-6.459,3.4-6.467-3.4,1.23,7.2-5.236,5.1Z" transform="translate(43.584 7.923)" fill="#fff"/>
          <path id="Trazado_93" data-name="Trazado 93" d="M14.612,15.214l-5.23-5.1,1.23-7.2-6.467,3.4-6.459-3.4,1.23,7.2-5.229,5.1L.916,16.266l3.23,6.548,3.238-6.548Z" transform="translate(12.606 72.898)" fill="#fff"/>
          <path id="Trazado_94" data-name="Trazado 94" d="M6.734,3.176,2.121,5.6-2.412,3.176l.971,5.18L-5.245,12l5.18.728.648,1.214.971,2.024a19.582,19.582,0,0,0,2.59-2.59l.162-.243.243-.4h.4c.971-.971,1.781-1.781,2.59-2.752L5.925,8.356Z" transform="translate(97.922 93.467)" fill="#fff"/>
          <path id="Trazado_95" data-name="Trazado 95" d="M1.888,4.815l-4.581-2.4.866,5.107-3.707,3.618,5.124.745,2.3,4.646,2.3-4.646,5.124-.745L5.6,7.518l.874-5.107Z" transform="translate(74.8 32.281)" fill="#fff"/>
          <path id="Trazado_96" data-name="Trazado 96" d="M3,3.285-1.533,5.632-6.147,3.285l.4,1.943.4,2.833v.162A56.129,56.129,0,0,0,.814,12.593H.976l4.856-.567L2.19,8.222Z" transform="translate(25.816 102.181)" fill="#fff"/>
          <path id="Trazado_97" data-name="Trazado 97" d="M1.743,11.857,4.09,7.324l5.018-.809-.4-.4L5.709,3.115A50.285,50.285,0,0,0-2.3,1.982l.243.971-.971.971-2.59,2.59,5.18.809Z" transform="translate(67.704 -1.982)" fill="#fff"/>
          <path id="Trazado_98" data-name="Trazado 98" d="M1.974,4.764-.373,3.55l-1.781-.971.809,4.937-3.642,3.8,5.018.648.809,1.538,1.538,3.238.648-1.457A57.972,57.972,0,0,0,1.974,4.764Z" transform="translate(118.547 45.743)" fill="#fff"/>
          <path id="Trazado_99" data-name="Trazado 99" d="M13.811,12.5l-3.4-3.157V8.7A15.654,15.654,0,0,0,6.445,4.974l-1.214.567L3.208,4.569,2.236,4-1.325,2.141l1.376,7.2-5.342,4.937L2.075,15.5l3.157,6.556L8.388,15.5,13,14.687l2.185-.4-.971-1.133Z" transform="translate(94.245 10.729)" fill="#fff"/>
          <path id="Trazado_100" data-name="Trazado 100" d="M17.694,2.679,8.871,7.325.041,2.679l1.684,9.834-7.139,6.961,9.867,1.441,4.419,8.936,4.411-8.936,9.867-1.441L16.01,12.514Z" transform="translate(84.345 53.769)" fill="#fff"/>
          <path id="Trazado_101" data-name="Trazado 101" d="M14.088,19.211l-7.2-6.961L8.5,2.294,2.918,5.289-.238,7.069A52.721,52.721,0,0,0-6.39,20.425l1.781.162.162.4,4.209,8.58,4.371-8.984Z" transform="translate(6.39 22.959)" fill="#fff"/>
          <path id="Trazado_102" data-name="Trazado 102" d="M21.319,29.221l14.455-2.1-10.458-10.2,2.469-14.4-12.934,6.8L1.917,2.518l2.469,14.4-10.458,10.2,14.456,2.1,6.467,13.1Z" transform="translate(31.799 40.882)" fill="#fff"/>
          <path id="Trazado_103" data-name="Trazado 103" d="M24.265,17.61,26.612,3.2,13.662,10,.954,3.2,3.3,17.61-4.226,24.9l-1.619,1.619A55.1,55.1,0,0,0,9.291,28.537a58.153,58.153,0,0,0,21.935-4.209l-1.619-1.376Z" transform="translate(49.958 95.626)" fill="#fff"/>
        </g>
      </g>
    </g>
    <g id="Grupo_60" data-name="Grupo 60" transform="translate(40.031 207.841)">
      <g id="Grupo_57" data-name="Grupo 57" transform="translate(69.123)">
        <g id="Grupo_47" data-name="Grupo 47" transform="translate(0 513.941)">
          <circle id="Elipse_5" data-name="Elipse 5" cx="4.031" cy="4.031" r="4.031" transform="translate(0.029 11.461)" fill="#fff"/>
          <path id="Trazado_104" data-name="Trazado 104" d="M-8.194,8.625a4.043,4.043,0,0,0,4.047,3.966A3.991,3.991,0,0,0-.1,8.625,4.008,4.008,0,0,0-4.147,4.578,4.059,4.059,0,0,0-8.194,8.625Z" transform="translate(8.194 -4.578)" fill="#fff"/>
        </g>
        <g id="Grupo_48" data-name="Grupo 48" transform="translate(0 352.651)">
          <path id="Trazado_105" data-name="Trazado 105" d="M-8.194,6.774a4.112,4.112,0,0,0,4.047,4.047A4.059,4.059,0,0,0-.1,6.774,4.008,4.008,0,0,0-4.147,2.727,4.059,4.059,0,0,0-8.194,6.774Z" transform="translate(8.194 8.742)" fill="#fff"/>
          <circle id="Elipse_6" data-name="Elipse 6" cx="4.031" cy="4.031" r="4.031" transform="translate(0.029)" fill="#fff"/>
        </g>
        <g id="Grupo_49" data-name="Grupo 49" transform="translate(0 298.882)">
          <path id="Trazado_106" data-name="Trazado 106" d="M-8.194,6.11a4.112,4.112,0,0,0,4.047,4.047A4.059,4.059,0,0,0-.1,6.11,4.008,4.008,0,0,0-4.147,2.063,4.059,4.059,0,0,0-8.194,6.11Z" transform="translate(8.194 9.431)" fill="#fff"/>
          <path id="Trazado_107" data-name="Trazado 107" d="M-8.194,5.968a4.112,4.112,0,0,0,4.047,4.047A4.059,4.059,0,0,0-.1,5.968,4.059,4.059,0,0,0-4.147,1.921,4.112,4.112,0,0,0-8.194,5.968Z" transform="translate(8.194 -1.921)" fill="#fff"/>
        </g>
        <g id="Grupo_50" data-name="Grupo 50" transform="translate(0 245.137)">
          <circle id="Elipse_7" data-name="Elipse 7" cx="4.031" cy="4.031" r="4.031" transform="translate(0.029 11.469)" fill="#fff"/>
          <path id="Trazado_108" data-name="Trazado 108" d="M-8.194,5.3A4.112,4.112,0,0,0-4.147,9.351,4.059,4.059,0,0,0-.1,5.3,4.008,4.008,0,0,0-4.147,1.257,4.059,4.059,0,0,0-8.194,5.3Z" transform="translate(8.194 -1.257)" fill="#fff"/>
        </g>
        <g id="Grupo_51" data-name="Grupo 51" transform="translate(0.029 191.376)">
          <circle id="Elipse_8" data-name="Elipse 8" cx="4.031" cy="4.031" r="4.031" transform="translate(0 11.477)" fill="#fff"/>
          <circle id="Elipse_9" data-name="Elipse 9" cx="4.031" cy="4.031" r="4.031" transform="translate(0 0)" fill="#fff"/>
        </g>
        <g id="Grupo_52" data-name="Grupo 52" transform="translate(0.029 137.615)">
          <circle id="Elipse_10" data-name="Elipse 10" cx="4.031" cy="4.031" r="4.031" transform="translate(0 11.477)" fill="#fff"/>
          <circle id="Elipse_11" data-name="Elipse 11" cx="4.031" cy="4.031" r="4.031" transform="translate(0 0)" fill="#fff"/>
        </g>
        <g id="Grupo_53" data-name="Grupo 53" transform="translate(0.029 83.855)">
          <circle id="Elipse_12" data-name="Elipse 12" cx="4.031" cy="4.031" r="4.031" transform="translate(0 11.477)" fill="#fff"/>
          <circle id="Elipse_13" data-name="Elipse 13" cx="4.031" cy="4.031" r="4.031" transform="translate(0 0)" fill="#fff"/>
        </g>
        <g id="Grupo_54" data-name="Grupo 54" transform="translate(2.222 491.496)">
          <rect id="Rectángulo_21" data-name="Rectángulo 21" width="3.683" height="139.169" fill="#fff"/>
        </g>
        <g id="Grupo_55" data-name="Grupo 55" transform="translate(2.222)">
          <rect id="Rectángulo_22" data-name="Rectángulo 22" width="3.675" height="395.509" fill="#fff"/>
        </g>
        <g id="Grupo_56" data-name="Grupo 56" transform="translate(0.029 567.686)">
          <circle id="Elipse_14" data-name="Elipse 14" cx="4.031" cy="4.031" r="4.031" transform="translate(0 11.477)" fill="#fff"/>
          <circle id="Elipse_15" data-name="Elipse 15" cx="4.031" cy="4.031" r="4.031" fill="#fff"/>
        </g>
      </g>
      <path id="Trazado_109" data-name="Trazado 109" d="M28.376,21.8a7.143,7.143,0,0,0-2.024-4.856A6.191,6.191,0,0,0,23.2,15.165,9.4,9.4,0,0,0,19.23,8.771,15.662,15.662,0,0,0,10,5.857,15.661,15.661,0,0,0,.775,8.771a10.013,10.013,0,0,0-3.966,6.394,6.19,6.19,0,0,0-3.157,1.781h0A7.143,7.143,0,0,0-8.371,21.8v7.366l2.024-.486.081,1.457H27.4l-.243-1.3,1.214.324Z" transform="translate(63.168 611.607)" fill="#fff"/>
      <g id="Grupo_59" data-name="Grupo 59" transform="translate(0 638.185)">
        <path id="Trazado_110" data-name="Trazado 110" d="M-9.048,79.364a72.856,72.856,0,0,0,27.439,56.9v.243c2.347,1.862,4.614,3.48,7.2,5.18h.243a64.4,64.4,0,0,0,20.4,8.661A64.758,64.758,0,0,0,64.041,152.7a67.8,67.8,0,0,0,25.739-4.937,68.155,68.155,0,0,0,21.53-12.465,17.957,17.957,0,0,0,3.076-2.995l.243-.243.647-.486a37.765,37.765,0,0,0,3.076-3.238,72.529,72.529,0,0,0,18.94-48.969v-.89a80.181,80.181,0,0,0-1.133-12.465,71.916,71.916,0,0,0-13.112-29.948l-1.214-1.376-.486-.729a29.458,29.458,0,0,0-3.966-4.452,16.389,16.389,0,0,0-4.695-4.452A69.361,69.361,0,0,0,80.634,7.975,49.5,49.5,0,0,0,71.245,6.6a71.777,71.777,0,0,0-7.2-.486A72.223,72.223,0,0,0,1.474,41.889a65.708,65.708,0,0,0-7.2,15.7A74.639,74.639,0,0,0-9.048,79.364Zm26.953,53.664A70.663,70.663,0,0,1-6.7,79.364,68.62,68.62,0,0,1-3.382,58.32,62.713,62.713,0,0,1,5.279,39.784,70.957,70.957,0,0,1,64.041,8.46a33.112,33.112,0,0,1,6.313.4,55.9,55.9,0,0,1,13.76,2.59A65.322,65.322,0,0,1,107.83,23.92l1.133.648a64.325,64.325,0,0,1,11.494,11.979,67.121,67.121,0,0,1,12.87,28.086A46.419,46.419,0,0,1,134.7,76.289a13.5,13.5,0,0,1,.243,3.076,70.492,70.492,0,0,1-18.212,47.269,60.96,60.96,0,0,1-6.556,6.394A66.028,66.028,0,0,1,87.919,146.14,68.436,68.436,0,0,1,48.1,148.407a64.443,64.443,0,0,1-18.535-7.2A50.442,50.442,0,0,1,17.905,133.028Z" transform="translate(9.048 -6.113)" fill="#fff"/>
        <g id="Grupo_58" data-name="Grupo 58" transform="translate(3.319 0.486)">
          <path id="Trazado_111" data-name="Trazado 111" d="M.04,21.967l3.812,7.714,3.8-7.714,8.507-1.23-6.152-6L11.46,6.265l-7.608,4-7.608-4,1.449,8.474-6.152,6Z" transform="translate(52.795 5.528)" fill="#fff"/>
          <path id="Trazado_112" data-name="Trazado 112" d="M15.7,21.693,9.547,15.687,11,7.221l-7.608,4-7.608-4,1.457,8.466-6.151,6.006,8.5,1.238,3.8,7.706,3.8-7.706Z" transform="translate(16.342 81.976)" fill="#fff"/>
          <path id="Trazado_113" data-name="Trazado 113" d="M6.344,7.524,1,10.357-4.421,7.524l1.214,6.151-4.452,4.209,6.071.89.729,1.457L.273,22.5A17.957,17.957,0,0,0,3.349,19.5l.243-.243.162-.486h.486a37.768,37.768,0,0,0,3.076-3.238L5.453,13.675Z" transform="translate(116.767 106.198)" fill="#fff"/>
          <path id="Trazado_114" data-name="Trazado 114" d="M.734,9.456-4.657,6.623l1.028,6.014L-8,16.895l6.038.874,2.7,5.472,2.7-5.472,6.03-.874L5.1,12.637,6.132,6.623Z" transform="translate(89.512 34.187)" fill="#fff"/>
          <path id="Trazado_115" data-name="Trazado 115" d="M2.044,7.652-3.3,10.4-8.721,7.652-8.235,10l.486,3.238v.243c2.347,1.862,4.614,3.48,7.2,5.18H-.3l5.666-.729L1.154,13.48Z" transform="translate(31.87 116.43)" fill="#fff"/>
          <path id="Trazado_116" data-name="Trazado 116" d="M.556,17.774l2.833-5.342,5.828-.971-.486-.486L5.25,7.495A49.5,49.5,0,0,0-4.139,6.119L-3.9,7.252-5.029,8.385-8.1,11.461l6.071.971Z" transform="translate(81.114 -6.119)" fill="#fff"/>
          <path id="Trazado_117" data-name="Trazado 117" d="M.9,9.411-1.933,8.035l-2.1-1.214.971,5.909-4.29,4.452,5.909.647.89,1.862,1.862,3.8.729-1.619A80.183,80.183,0,0,0,.9,9.411Z" transform="translate(140.989 49.999)" fill="#fff"/>
          <path id="Trazado_118" data-name="Trazado 118" d="M14.707,18.528,10.74,14.8v-.728A16.389,16.389,0,0,0,6.046,9.625l-1.376.728L2.323,9.139,1.189,8.491-3.019,6.306-1.4,14.8l-6.313,5.828L.947,22.008l3.723,7.77,3.723-7.77,5.423-.89,2.59-.486-1.214-1.376Z" transform="translate(112.37 8.83)" fill="#fff"/>
          <path id="Trazado_119" data-name="Trazado 119" d="M19.337,6.94,8.944,12.395-1.441,6.94.542,18.5l-8.4,8.191L3.756,28.381,8.944,38.9l5.2-10.522,11.615-1.692L17.345,18.5Z" transform="translate(100.743 59.48)" fill="#fff"/>
          <path id="Trazado_120" data-name="Trazado 120" d="M15.113,26.4l-8.5-8.175L8.557,6.486,2,9.966l-3.8,2.1a65.708,65.708,0,0,0-7.2,15.7l2.1.243.243.486L-1.8,38.539l5.18-10.522Z" transform="translate(9.007 23.219)" fill="#fff"/>
          <path id="Trazado_121" data-name="Trazado 121" d="M23.588,38.163l17.006-2.477-12.3-12L31.2,6.75l-15.217,8L.763,6.75,3.67,23.691l-12.3,12,17,2.477L15.98,53.574Z" transform="translate(38.926 44.316)" fill="#fff"/>
          <path id="Trazado_122" data-name="Trazado 122" d="M27.006,24.392,29.758,7.556,14.541,15.569-.433,7.556,2.4,24.392l-8.9,8.661-1.862,1.943A64.348,64.348,0,0,0,9.442,37.342,67.8,67.8,0,0,0,35.181,32.4l-1.862-1.619Z" transform="translate(60.329 108.756)" fill="#fff"/>
        </g>
      </g>
    </g>
    <g id="Grupo_74" data-name="Grupo 74" transform="translate(132.385 64.325)">
      <g id="Grupo_72" data-name="Grupo 72" transform="translate(76.963)">
        <g id="Grupo_61" data-name="Grupo 61" transform="translate(0 457.291)">
          <circle id="Elipse_16" data-name="Elipse 16" cx="4.031" cy="4.031" r="4.031" transform="translate(0 11.469)" fill="#fff"/>
          <path id="Trazado_123" data-name="Trazado 123" d="M-6.956,6.152A4.059,4.059,0,0,0-2.909,10.2,4.043,4.043,0,0,0,1.057,6.152,3.991,3.991,0,0,0-2.909,2.1,4.008,4.008,0,0,0-6.956,6.152Z" transform="translate(6.968 -2.105)" fill="#fff"/>
        </g>
        <g id="Grupo_62" data-name="Grupo 62" transform="translate(0.012 403.546)">
          <path id="Trazado_124" data-name="Trazado 124" d="M-6.956,5.549A4.008,4.008,0,0,0-2.909,9.6,3.991,3.991,0,0,0,1.057,5.549,3.973,3.973,0,0,0-2.909,1.583,3.991,3.991,0,0,0-6.956,5.549Z" transform="translate(6.956 9.911)" fill="#fff"/>
          <path id="Trazado_125" data-name="Trazado 125" d="M-6.956,5.407A4.008,4.008,0,0,0-2.909,9.454,3.991,3.991,0,0,0,1.057,5.407,3.973,3.973,0,0,0-2.909,1.441,3.991,3.991,0,0,0-6.956,5.407Z" transform="translate(6.956 -1.441)" fill="#fff"/>
        </g>
        <g id="Grupo_63" data-name="Grupo 63" transform="translate(0 349.769)">
          <path id="Trazado_126" data-name="Trazado 126" d="M-6.956,4.965A4.008,4.008,0,0,0-2.909,9.012,3.991,3.991,0,0,0,1.057,4.965,4.043,4.043,0,0,0-2.909.918,4.059,4.059,0,0,0-6.956,4.965Z" transform="translate(6.968 10.527)" fill="#fff"/>
          <circle id="Elipse_17" data-name="Elipse 17" cx="4.031" cy="4.031" r="4.031" transform="translate(0 0)" fill="#fff"/>
        </g>
        <g id="Grupo_64" data-name="Grupo 64" transform="translate(0 296.008)">
          <circle id="Elipse_18" data-name="Elipse 18" cx="4.031" cy="4.031" r="4.031" transform="translate(0 11.477)" fill="#fff"/>
          <circle id="Elipse_19" data-name="Elipse 19" cx="4.031" cy="4.031" r="4.031" fill="#fff"/>
        </g>
        <g id="Grupo_65" data-name="Grupo 65" transform="translate(0.012 242.231)">
          <path id="Trazado_127" data-name="Trazado 127" d="M-6.956,3.637A4.059,4.059,0,0,0-2.909,7.684,4.043,4.043,0,0,0,1.057,3.637,3.991,3.991,0,0,0-2.909-.41,4.008,4.008,0,0,0-6.956,3.637Z" transform="translate(6.956 11.904)" fill="#fff"/>
          <path id="Trazado_128" data-name="Trazado 128" d="M-6.956,3.5A4.008,4.008,0,0,0-2.909,7.542,3.991,3.991,0,0,0,1.057,3.5,4.043,4.043,0,0,0-2.909-.552,4.059,4.059,0,0,0-6.956,3.5Z" transform="translate(6.956 0.552)" fill="#fff"/>
        </g>
        <g id="Grupo_66" data-name="Grupo 66" transform="translate(0.012 188.487)">
          <path id="Trazado_129" data-name="Trazado 129" d="M-6.956,2.973A4.059,4.059,0,0,0-2.909,7.02,4.043,4.043,0,0,0,1.057,2.973,3.991,3.991,0,0,0-2.909-1.074,4.008,4.008,0,0,0-6.956,2.973Z" transform="translate(6.956 12.568)" fill="#fff"/>
          <path id="Trazado_130" data-name="Trazado 130" d="M-6.956,2.831A4.059,4.059,0,0,0-2.909,6.878,4.043,4.043,0,0,0,1.057,2.831,3.991,3.991,0,0,0-2.909-1.216,4.008,4.008,0,0,0-6.956,2.831Z" transform="translate(6.956 1.216)" fill="#fff"/>
        </g>
        <g id="Grupo_67" data-name="Grupo 67" transform="translate(0 134.734)">
          <circle id="Elipse_20" data-name="Elipse 20" cx="4.031" cy="4.031" r="4.031" transform="translate(0 11.477)" fill="#fff"/>
          <circle id="Elipse_21" data-name="Elipse 21" cx="4.031" cy="4.031" r="4.031" fill="#fff"/>
        </g>
        <g id="Grupo_68" data-name="Grupo 68" transform="translate(0 80.973)">
          <circle id="Elipse_22" data-name="Elipse 22" cx="4.031" cy="4.031" r="4.031" transform="translate(0 11.477)" fill="#fff"/>
          <circle id="Elipse_23" data-name="Elipse 23" cx="4.031" cy="4.031" r="4.031" fill="#fff"/>
        </g>
        <g id="Grupo_69" data-name="Grupo 69" transform="translate(0 27.212)">
          <path id="Trazado_131" data-name="Trazado 131" d="M-6.956.98A4.008,4.008,0,0,0-2.909,5.027,3.991,3.991,0,0,0,1.057.98,4.043,4.043,0,0,0-2.909-3.067,4.059,4.059,0,0,0-6.956.98Z" transform="translate(6.968 14.52)" fill="#fff"/>
          <circle id="Elipse_24" data-name="Elipse 24" cx="4.031" cy="4.031" r="4.031" fill="#fff"/>
        </g>
        <g id="Grupo_70" data-name="Grupo 70" transform="translate(2.193)">
          <rect id="Rectángulo_23" data-name="Rectángulo 23" width="3.675" height="574.031" fill="#fff"/>
        </g>
        <g id="Grupo_71" data-name="Grupo 71" transform="translate(0 511.043)">
          <circle id="Elipse_25" data-name="Elipse 25" cx="4.031" cy="4.031" r="4.031" transform="translate(0 11.477)" fill="#fff"/>
          <circle id="Elipse_26" data-name="Elipse 26" cx="4.031" cy="4.031" r="4.031" transform="translate(0 0)" fill="#fff"/>
        </g>
      </g>
      <g id="Grupo_73" data-name="Grupo 73" transform="translate(0 559.681)">
        <path id="Trazado_132" data-name="Trazado 132" d="M114.8,124.134c6.151,3.076,11.17,0,16.107-2.995a46.28,46.28,0,0,1-26.144-26.63c5.018,1.7,6.961-2.1,10.36-3.076A73.214,73.214,0,0,1,87.441,54.039c4.614,2.428,8.742-.486,13.112-.728a103.08,103.08,0,0,1-17.24-23.23c-4.29-8.013-6.151-16.593-9.47-24.768a4.147,4.147,0,0,0-.648-1.7l-.081-.243h-.081l-.081.243a4.146,4.146,0,0,0-.648,1.7c-3.238,8.175-5.18,16.755-9.47,24.768a103.082,103.082,0,0,1-17.24,23.23c4.371.243,8.5,3.157,13.112.728A72.771,72.771,0,0,1,31.025,91.433c3.48.971,5.342,4.776,10.36,3.076a46.28,46.28,0,0,1-26.144,26.63c5.018,2.995,9.956,6.071,16.107,2.995A78.253,78.253,0,0,1-7.907,159.019a159.553,159.553,0,0,0,65.8,1.133,45.837,45.837,0,0,0,7.123-1.781l-5.5,21.206H86.632l-5.423-21.206a42.745,42.745,0,0,0,7.042,1.781,159.552,159.552,0,0,0,65.8-1.133A78.253,78.253,0,0,1,114.8,124.134Z" transform="translate(7.907 -3.37)" fill="#fff"/>
      </g>
    </g>
    <g id="Grupo_87" data-name="Grupo 87" transform="translate(-9.662 99.656)">
      <g id="Grupo_86" data-name="Grupo 86" transform="translate(21.283)">
        <g id="Grupo_75" data-name="Grupo 75" transform="translate(0 324.588)">
          <path id="Trazado_133" data-name="Trazado 133" d="M-9.4,3.836A2.766,2.766,0,0,0-6.566,6.669,2.815,2.815,0,0,0-3.733,3.836,2.868,2.868,0,0,0-6.566,1,2.815,2.815,0,0,0-9.4,3.836Z" transform="translate(9.399 7.172)" fill="#fff"/>
          <path id="Trazado_134" data-name="Trazado 134" d="M-9.4,3.735A2.834,2.834,0,0,0-6.566,6.649,2.885,2.885,0,0,0-3.733,3.735,2.868,2.868,0,0,0-6.566.9,2.815,2.815,0,0,0-9.4,3.735Z" transform="translate(9.399 -0.902)" fill="#fff"/>
        </g>
        <g id="Grupo_76" data-name="Grupo 76" transform="translate(0 286.465)">
          <path id="Trazado_135" data-name="Trazado 135" d="M-9.4,3.445A2.815,2.815,0,0,0-6.566,6.278,2.868,2.868,0,0,0-3.733,3.445,2.885,2.885,0,0,0-6.566.531,2.834,2.834,0,0,0-9.4,3.445Z" transform="translate(9.399 7.563)" fill="#fff"/>
          <path id="Trazado_136" data-name="Trazado 136" d="M-9.4,3.264A2.815,2.815,0,0,0-6.566,6.1,2.868,2.868,0,0,0-3.733,3.264,2.815,2.815,0,0,0-6.566.431,2.766,2.766,0,0,0-9.4,3.264Z" transform="translate(9.399 -0.431)" fill="#fff"/>
        </g>
        <g id="Grupo_77" data-name="Grupo 77" transform="translate(0 248.261)">
          <path id="Trazado_137" data-name="Trazado 137" d="M-9.4,2.893A2.766,2.766,0,0,0-6.566,5.726,2.815,2.815,0,0,0-3.733,2.893,2.868,2.868,0,0,0-6.566.06,2.815,2.815,0,0,0-9.4,2.893Z" transform="translate(9.399 8.115)" fill="#fff"/>
          <path id="Trazado_138" data-name="Trazado 138" d="M-9.4,2.873A2.815,2.815,0,0,0-6.566,5.706,2.868,2.868,0,0,0-3.733,2.873,2.885,2.885,0,0,0-6.566-.041,2.834,2.834,0,0,0-9.4,2.873Z" transform="translate(9.399 0.041)" fill="#fff"/>
        </g>
        <g id="Grupo_78" data-name="Grupo 78" transform="translate(0 210.138)">
          <path id="Trazado_139" data-name="Trazado 139" d="M-9.4,2.5A2.815,2.815,0,0,0-6.566,5.335,2.868,2.868,0,0,0-3.733,2.5,2.885,2.885,0,0,0-6.566-.412,2.834,2.834,0,0,0-9.4,2.5Z" transform="translate(9.399 8.506)" fill="#fff"/>
          <path id="Trazado_140" data-name="Trazado 140" d="M-9.4,2.321A2.815,2.815,0,0,0-6.566,5.154,2.868,2.868,0,0,0-3.733,2.321,2.868,2.868,0,0,0-6.566-.512,2.815,2.815,0,0,0-9.4,2.321Z" transform="translate(9.399 0.512)" fill="#fff"/>
        </g>
        <g id="Grupo_79" data-name="Grupo 79" transform="translate(0 171.934)">
          <path id="Trazado_141" data-name="Trazado 141" d="M-9.4,1.95A2.834,2.834,0,0,0-6.566,4.864,2.885,2.885,0,0,0-3.733,1.95,2.868,2.868,0,0,0-6.566-.883,2.815,2.815,0,0,0-9.4,1.95Z" transform="translate(9.399 9.058)" fill="#fff"/>
          <path id="Trazado_142" data-name="Trazado 142" d="M-9.4,1.93A2.815,2.815,0,0,0-6.566,4.763,2.868,2.868,0,0,0-3.733,1.93,2.885,2.885,0,0,0-6.566-.984,2.834,2.834,0,0,0-9.4,1.93Z" transform="translate(9.399 0.984)" fill="#fff"/>
        </g>
        <g id="Grupo_80" data-name="Grupo 80" transform="translate(0 133.811)">
          <path id="Trazado_143" data-name="Trazado 143" d="M-9.4,1.559A2.815,2.815,0,0,0-6.566,4.392,2.868,2.868,0,0,0-3.733,1.559,2.885,2.885,0,0,0-6.566-1.355,2.834,2.834,0,0,0-9.4,1.559Z" transform="translate(9.399 9.449)" fill="#fff"/>
          <path id="Trazado_144" data-name="Trazado 144" d="M-9.4,1.378A2.766,2.766,0,0,0-6.566,4.211,2.815,2.815,0,0,0-3.733,1.378,2.868,2.868,0,0,0-6.566-1.455,2.815,2.815,0,0,0-9.4,1.378Z" transform="translate(9.399 1.455)" fill="#fff"/>
        </g>
        <g id="Grupo_81" data-name="Grupo 81" transform="translate(0 95.607)">
          <path id="Trazado_145" data-name="Trazado 145" d="M-9.4,1.007A2.834,2.834,0,0,0-6.566,3.921,2.885,2.885,0,0,0-3.733,1.007,2.868,2.868,0,0,0-6.566-1.826,2.815,2.815,0,0,0-9.4,1.007Z" transform="translate(9.399 10.001)" fill="#fff"/>
          <path id="Trazado_146" data-name="Trazado 146" d="M-9.4.987A2.815,2.815,0,0,0-6.566,3.82,2.868,2.868,0,0,0-3.733.987,2.885,2.885,0,0,0-6.566-1.927,2.834,2.834,0,0,0-9.4.987Z" transform="translate(9.399 1.927)" fill="#fff"/>
        </g>
        <g id="Grupo_82" data-name="Grupo 82" transform="translate(0 57.484)">
          <path id="Trazado_147" data-name="Trazado 147" d="M-9.4.536A2.815,2.815,0,0,0-6.566,3.369,2.868,2.868,0,0,0-3.733.536,2.815,2.815,0,0,0-6.566-2.3,2.766,2.766,0,0,0-9.4.536Z" transform="translate(9.399 10.472)" fill="#fff"/>
          <path id="Trazado_148" data-name="Trazado 148" d="M-9.4.435A2.834,2.834,0,0,0-6.566,3.349,2.885,2.885,0,0,0-3.733.435,2.868,2.868,0,0,0-6.566-2.4,2.815,2.815,0,0,0-9.4.435Z" transform="translate(9.399 2.398)" fill="#fff"/>
        </g>
        <g id="Grupo_83" data-name="Grupo 83" transform="translate(0 19.28)">
          <path id="Trazado_149" data-name="Trazado 149" d="M-9.4.064A2.834,2.834,0,0,0-6.566,2.978,2.885,2.885,0,0,0-3.733.064,2.868,2.868,0,0,0-6.566-2.769,2.815,2.815,0,0,0-9.4.064Z" transform="translate(9.399 10.944)" fill="#fff"/>
          <path id="Trazado_150" data-name="Trazado 150" d="M-9.4.044A2.815,2.815,0,0,0-6.566,2.877,2.868,2.868,0,0,0-3.733.044,2.885,2.885,0,0,0-6.566-2.87,2.834,2.834,0,0,0-9.4.044Z" transform="translate(9.399 2.87)" fill="#fff"/>
        </g>
        <g id="Grupo_84" data-name="Grupo 84" transform="translate(1.518)">
          <rect id="Rectángulo_24" data-name="Rectángulo 24" width="2.614" height="407.456" fill="#fff"/>
        </g>
        <g id="Grupo_85" data-name="Grupo 85" transform="translate(0 362.712)">
          <path id="Trazado_151" data-name="Trazado 151" d="M-9.4,4.307A2.834,2.834,0,0,0-6.566,7.221,2.885,2.885,0,0,0-3.733,4.307,2.868,2.868,0,0,0-6.566,1.474,2.815,2.815,0,0,0-9.4,4.307Z" transform="translate(9.399 6.701)" fill="#fff"/>
          <path id="Trazado_152" data-name="Trazado 152" d="M-9.4,4.287A2.815,2.815,0,0,0-6.566,7.12,2.868,2.868,0,0,0-3.733,4.287,2.885,2.885,0,0,0-6.566,1.373,2.834,2.834,0,0,0-9.4,4.287Z" transform="translate(9.399 -1.373)" fill="#fff"/>
        </g>
      </g>
      <path id="Trazado_153" data-name="Trazado 153" d="M14.45,1.824l5.691,17.516H38.554l-14.9,10.822,5.7,17.524-14.9-10.83-14.9,10.83,5.69-17.524-14.9-10.822H8.76Z" transform="translate(9.662 397.384)" fill="#fff"/>
    </g>
    <g id="Grupo_100" data-name="Grupo 100" transform="translate(139.196 143.906)">
      <g id="Grupo_99" data-name="Grupo 99" transform="translate(21.275)">
        <g id="Grupo_88" data-name="Grupo 88" transform="translate(0 324.613)">
          <path id="Trazado_154" data-name="Trazado 154" d="M-7.56,4.463A2.815,2.815,0,0,0-4.727,7.3,2.815,2.815,0,0,0-1.894,4.463,2.834,2.834,0,0,0-4.727,1.549,2.834,2.834,0,0,0-7.56,4.463Z" transform="translate(7.56 6.545)" fill="#fff"/>
          <path id="Trazado_155" data-name="Trazado 155" d="M-7.56,4.282A2.834,2.834,0,0,0-4.727,7.2,2.834,2.834,0,0,0-1.894,4.282,2.815,2.815,0,0,0-4.727,1.449,2.815,2.815,0,0,0-7.56,4.282Z" transform="translate(7.56 -1.449)" fill="#fff"/>
        </g>
        <g id="Grupo_89" data-name="Grupo 89" transform="translate(0 286.409)">
          <path id="Trazado_156" data-name="Trazado 156" d="M-7.56,3.911A2.834,2.834,0,0,0-4.727,6.825,2.834,2.834,0,0,0-1.894,3.911,2.815,2.815,0,0,0-4.727,1.078,2.815,2.815,0,0,0-7.56,3.911Z" transform="translate(7.56 7.097)" fill="#fff"/>
          <path id="Trazado_157" data-name="Trazado 157" d="M-7.56,3.891A2.815,2.815,0,0,0-4.727,6.724,2.815,2.815,0,0,0-1.894,3.891,2.834,2.834,0,0,0-4.727.977,2.834,2.834,0,0,0-7.56,3.891Z" transform="translate(7.56 -0.977)" fill="#fff"/>
        </g>
        <g id="Grupo_90" data-name="Grupo 90" transform="translate(0 248.286)">
          <path id="Trazado_158" data-name="Trazado 158" d="M-7.56,3.52A2.815,2.815,0,0,0-4.727,6.353,2.815,2.815,0,0,0-1.894,3.52,2.834,2.834,0,0,0-4.727.606,2.834,2.834,0,0,0-7.56,3.52Z" transform="translate(7.56 7.488)" fill="#fff"/>
          <path id="Trazado_159" data-name="Trazado 159" d="M-7.56,3.339A2.834,2.834,0,0,0-4.727,6.253,2.834,2.834,0,0,0-1.894,3.339,2.815,2.815,0,0,0-4.727.506,2.815,2.815,0,0,0-7.56,3.339Z" transform="translate(7.56 -0.506)" fill="#fff"/>
        </g>
        <g id="Grupo_91" data-name="Grupo 91" transform="translate(0 210.082)">
          <path id="Trazado_160" data-name="Trazado 160" d="M-7.56,2.968A2.834,2.834,0,0,0-4.727,5.882,2.834,2.834,0,0,0-1.894,2.968,2.815,2.815,0,0,0-4.727.135,2.815,2.815,0,0,0-7.56,2.968Z" transform="translate(7.56 8.04)" fill="#fff"/>
          <path id="Trazado_161" data-name="Trazado 161" d="M-7.56,2.948A2.815,2.815,0,0,0-4.727,5.781,2.815,2.815,0,0,0-1.894,2.948,2.834,2.834,0,0,0-4.727.034,2.834,2.834,0,0,0-7.56,2.948Z" transform="translate(7.56 -0.034)" fill="#fff"/>
        </g>
        <g id="Grupo_92" data-name="Grupo 92" transform="translate(0 171.959)">
          <path id="Trazado_162" data-name="Trazado 162" d="M-7.56,2.5A2.766,2.766,0,0,0-4.727,5.33,2.766,2.766,0,0,0-1.894,2.5,2.766,2.766,0,0,0-4.727-.336,2.766,2.766,0,0,0-7.56,2.5Z" transform="translate(7.56 8.511)" fill="#fff"/>
          <path id="Trazado_163" data-name="Trazado 163" d="M-7.56,2.4A2.834,2.834,0,0,0-4.727,5.31,2.834,2.834,0,0,0-1.894,2.4,2.815,2.815,0,0,0-4.727-.437,2.815,2.815,0,0,0-7.56,2.4Z" transform="translate(7.56 0.437)" fill="#fff"/>
        </g>
        <g id="Grupo_93" data-name="Grupo 93" transform="translate(0 133.835)">
          <path id="Trazado_164" data-name="Trazado 164" d="M-7.56,2.106A2.815,2.815,0,0,0-4.727,4.939,2.815,2.815,0,0,0-1.894,2.106,2.834,2.834,0,0,0-4.727-.808,2.834,2.834,0,0,0-7.56,2.106Z" transform="translate(7.56 8.902)" fill="#fff"/>
          <path id="Trazado_165" data-name="Trazado 165" d="M-7.56,1.925A2.815,2.815,0,0,0-4.727,4.758,2.815,2.815,0,0,0-1.894,1.925,2.766,2.766,0,0,0-4.727-.908,2.766,2.766,0,0,0-7.56,1.925Z" transform="translate(7.56 0.908)" fill="#fff"/>
        </g>
        <g id="Grupo_94" data-name="Grupo 94" transform="translate(0 95.631)">
          <path id="Trazado_166" data-name="Trazado 166" d="M-7.56,1.554A2.766,2.766,0,0,0-4.727,4.387,2.766,2.766,0,0,0-1.894,1.554,2.815,2.815,0,0,0-4.727-1.279,2.815,2.815,0,0,0-7.56,1.554Z" transform="translate(7.56 9.454)" fill="#fff"/>
          <path id="Trazado_167" data-name="Trazado 167" d="M-7.56,1.453A2.834,2.834,0,0,0-4.727,4.367,2.834,2.834,0,0,0-1.894,1.453,2.815,2.815,0,0,0-4.727-1.38,2.815,2.815,0,0,0-7.56,1.453Z" transform="translate(7.56 1.38)" fill="#fff"/>
        </g>
        <g id="Grupo_95" data-name="Grupo 95" transform="translate(0 57.508)">
          <path id="Trazado_168" data-name="Trazado 168" d="M-7.56,1.163A2.815,2.815,0,0,0-4.727,4,2.815,2.815,0,0,0-1.894,1.163,2.834,2.834,0,0,0-4.727-1.751,2.834,2.834,0,0,0-7.56,1.163Z" transform="translate(7.56 9.845)" fill="#fff"/>
          <path id="Trazado_169" data-name="Trazado 169" d="M-7.56.982A2.766,2.766,0,0,0-4.727,3.815,2.766,2.766,0,0,0-1.894.982,2.766,2.766,0,0,0-4.727-1.851,2.766,2.766,0,0,0-7.56.982Z" transform="translate(7.56 1.851)" fill="#fff"/>
        </g>
        <g id="Grupo_96" data-name="Grupo 96" transform="translate(0 19.304)">
          <path id="Trazado_170" data-name="Trazado 170" d="M-7.56.611A2.834,2.834,0,0,0-4.727,3.525,2.834,2.834,0,0,0-1.894.611,2.815,2.815,0,0,0-4.727-2.222,2.815,2.815,0,0,0-7.56.611Z" transform="translate(7.56 10.397)" fill="#fff"/>
          <path id="Trazado_171" data-name="Trazado 171" d="M-7.56.591A2.815,2.815,0,0,0-4.727,3.424,2.815,2.815,0,0,0-1.894.591,2.834,2.834,0,0,0-4.727-2.323,2.834,2.834,0,0,0-7.56.591Z" transform="translate(7.56 2.323)" fill="#fff"/>
        </g>
        <g id="Grupo_97" data-name="Grupo 97" transform="translate(1.526)">
          <rect id="Rectángulo_25" data-name="Rectángulo 25" width="2.614" height="407.464" fill="#fff"/>
        </g>
        <g id="Grupo_98" data-name="Grupo 98" transform="translate(0 362.736)">
          <path id="Trazado_172" data-name="Trazado 172" d="M-7.56,4.854A2.834,2.834,0,0,0-4.727,7.768,2.834,2.834,0,0,0-1.894,4.854,2.815,2.815,0,0,0-4.727,2.021,2.815,2.815,0,0,0-7.56,4.854Z" transform="translate(7.56 6.154)" fill="#fff"/>
          <path id="Trazado_173" data-name="Trazado 173" d="M-7.56,4.834A2.815,2.815,0,0,0-4.727,7.667,2.815,2.815,0,0,0-1.894,4.834,2.834,2.834,0,0,0-4.727,1.92,2.834,2.834,0,0,0-7.56,4.834Z" transform="translate(7.56 -1.92)" fill="#fff"/>
        </g>
      </g>
      <path id="Trazado_174" data-name="Trazado 174" d="M16.281,2.371l5.7,17.516H40.393l-14.9,10.83,5.7,17.516L16.281,37.41,1.38,48.232l5.7-17.516-14.9-10.83H10.591Z" transform="translate(7.823 396.837)" fill="#fff"/>
    </g>
    <g id="Grupo_113" data-name="Grupo 113" transform="translate(241.181 22.454)">
      <g id="Grupo_112" data-name="Grupo 112" transform="translate(21.275)">
        <g id="Grupo_101" data-name="Grupo 101" transform="translate(0 324.572)">
          <path id="Trazado_175" data-name="Trazado 175" d="M-6.3,2.882A2.834,2.834,0,0,0-3.467,5.8,2.834,2.834,0,0,0-.634,2.882,2.815,2.815,0,0,0-3.467.049,2.815,2.815,0,0,0-6.3,2.882Z" transform="translate(6.3 8.126)" fill="#fff"/>
          <path id="Trazado_176" data-name="Trazado 176" d="M-6.3,2.862A2.815,2.815,0,0,0-3.467,5.695,2.815,2.815,0,0,0-.634,2.862,2.834,2.834,0,0,0-3.467-.052,2.834,2.834,0,0,0-6.3,2.862Z" transform="translate(6.3 0.052)" fill="#fff"/>
        </g>
        <g id="Grupo_102" data-name="Grupo 102" transform="translate(0 286.449)">
          <path id="Trazado_177" data-name="Trazado 177" d="M-6.3,2.491A2.815,2.815,0,0,0-3.467,5.324,2.815,2.815,0,0,0-.634,2.491,2.834,2.834,0,0,0-3.467-.423,2.834,2.834,0,0,0-6.3,2.491Z" transform="translate(6.3 8.517)" fill="#fff"/>
          <path id="Trazado_178" data-name="Trazado 178" d="M-6.3,2.31A2.766,2.766,0,0,0-3.467,5.143,2.766,2.766,0,0,0-.634,2.31,2.815,2.815,0,0,0-3.467-.523,2.815,2.815,0,0,0-6.3,2.31Z" transform="translate(6.3 0.523)" fill="#fff"/>
        </g>
        <g id="Grupo_103" data-name="Grupo 103" transform="translate(0 248.245)">
          <path id="Trazado_179" data-name="Trazado 179" d="M-6.3,1.939A2.834,2.834,0,0,0-3.467,4.853,2.834,2.834,0,0,0-.634,1.939,2.815,2.815,0,0,0-3.467-.894,2.815,2.815,0,0,0-6.3,1.939Z" transform="translate(6.3 9.069)" fill="#fff"/>
          <path id="Trazado_180" data-name="Trazado 180" d="M-6.3,1.919A2.815,2.815,0,0,0-3.467,4.752,2.815,2.815,0,0,0-.634,1.919,2.834,2.834,0,0,0-3.467-.995,2.834,2.834,0,0,0-6.3,1.919Z" transform="translate(6.3 0.995)" fill="#fff"/>
        </g>
        <g id="Grupo_104" data-name="Grupo 104" transform="translate(0 210.122)">
          <path id="Trazado_181" data-name="Trazado 181" d="M-6.3,1.468A2.815,2.815,0,0,0-3.467,4.3,2.815,2.815,0,0,0-.634,1.468,2.766,2.766,0,0,0-3.467-1.365,2.766,2.766,0,0,0-6.3,1.468Z" transform="translate(6.3 9.54)" fill="#fff"/>
          <path id="Trazado_182" data-name="Trazado 182" d="M-6.3,1.367A2.834,2.834,0,0,0-3.467,4.281,2.834,2.834,0,0,0-.634,1.367,2.815,2.815,0,0,0-3.467-1.466,2.815,2.815,0,0,0-6.3,1.367Z" transform="translate(6.3 1.466)" fill="#fff"/>
        </g>
        <g id="Grupo_105" data-name="Grupo 105" transform="translate(0 171.918)">
          <path id="Trazado_183" data-name="Trazado 183" d="M-6.3,1A2.834,2.834,0,0,0-3.467,3.91,2.834,2.834,0,0,0-.634,1,2.815,2.815,0,0,0-3.467-1.837,2.815,2.815,0,0,0-6.3,1Z" transform="translate(6.3 10.012)" fill="#fff"/>
          <path id="Trazado_184" data-name="Trazado 184" d="M-6.3.976A2.815,2.815,0,0,0-3.467,3.809,2.815,2.815,0,0,0-.634.976,2.834,2.834,0,0,0-3.467-1.938,2.834,2.834,0,0,0-6.3.976Z" transform="translate(6.3 1.938)" fill="#fff"/>
        </g>
        <g id="Grupo_106" data-name="Grupo 106" transform="translate(0 133.795)">
          <path id="Trazado_185" data-name="Trazado 185" d="M-6.3.525A2.766,2.766,0,0,0-3.467,3.358,2.766,2.766,0,0,0-.634.525,2.766,2.766,0,0,0-3.467-2.308,2.766,2.766,0,0,0-6.3.525Z" transform="translate(6.3 10.483)" fill="#fff"/>
          <path id="Trazado_186" data-name="Trazado 186" d="M-6.3.424A2.834,2.834,0,0,0-3.467,3.338,2.834,2.834,0,0,0-.634.424,2.815,2.815,0,0,0-3.467-2.409,2.815,2.815,0,0,0-6.3.424Z" transform="translate(6.3 2.409)" fill="#fff"/>
        </g>
        <g id="Grupo_107" data-name="Grupo 107" transform="translate(0 95.672)">
          <path id="Trazado_187" data-name="Trazado 187" d="M-6.3.134A2.815,2.815,0,0,0-3.467,2.967,2.815,2.815,0,0,0-.634.134,2.834,2.834,0,0,0-3.467-2.78,2.834,2.834,0,0,0-6.3.134Z" transform="translate(6.3 10.874)" fill="#fff"/>
          <path id="Trazado_188" data-name="Trazado 188" d="M-6.3-.047A2.815,2.815,0,0,0-3.467,2.786,2.815,2.815,0,0,0-.634-.047,2.766,2.766,0,0,0-3.467-2.88,2.766,2.766,0,0,0-6.3-.047Z" transform="translate(6.3 2.88)" fill="#fff"/>
        </g>
        <g id="Grupo_108" data-name="Grupo 108" transform="translate(0 57.468)">
          <path id="Trazado_189" data-name="Trazado 189" d="M-6.3-.418A2.766,2.766,0,0,0-3.467,2.415,2.766,2.766,0,0,0-.634-.418,2.815,2.815,0,0,0-3.467-3.251,2.815,2.815,0,0,0-6.3-.418Z" transform="translate(6.3 11.426)" fill="#fff"/>
          <path id="Trazado_190" data-name="Trazado 190" d="M-6.3-.519A2.834,2.834,0,0,0-3.467,2.395,2.834,2.834,0,0,0-.634-.519,2.815,2.815,0,0,0-3.467-3.352,2.815,2.815,0,0,0-6.3-.519Z" transform="translate(6.3 3.352)" fill="#fff"/>
        </g>
        <g id="Grupo_109" data-name="Grupo 109" transform="translate(0 19.345)">
          <path id="Trazado_191" data-name="Trazado 191" d="M-6.3-.809A2.815,2.815,0,0,0-3.467,2.024,2.815,2.815,0,0,0-.634-.809,2.834,2.834,0,0,0-3.467-3.723,2.834,2.834,0,0,0-6.3-.809Z" transform="translate(6.3 11.817)" fill="#fff"/>
          <path id="Trazado_192" data-name="Trazado 192" d="M-6.3-.99A2.766,2.766,0,0,0-3.467,1.843,2.766,2.766,0,0,0-.634-.99,2.815,2.815,0,0,0-3.467-3.823,2.815,2.815,0,0,0-6.3-.99Z" transform="translate(6.3 3.823)" fill="#fff"/>
        </g>
        <g id="Grupo_110" data-name="Grupo 110" transform="translate(1.526)">
          <rect id="Rectángulo_26" data-name="Rectángulo 26" width="2.614" height="407.456" fill="#fff"/>
        </g>
        <g id="Grupo_111" data-name="Grupo 111" transform="translate(0 362.776)">
          <path id="Trazado_193" data-name="Trazado 193" d="M-6.3,3.434A2.815,2.815,0,0,0-3.467,6.267,2.815,2.815,0,0,0-.634,3.434,2.834,2.834,0,0,0-3.467.52,2.834,2.834,0,0,0-6.3,3.434Z" transform="translate(6.3 7.574)" fill="#fff"/>
          <path id="Trazado_194" data-name="Trazado 194" d="M-6.3,3.253A2.766,2.766,0,0,0-3.467,6.086,2.766,2.766,0,0,0-.634,3.253,2.766,2.766,0,0,0-3.467.42,2.766,2.766,0,0,0-6.3,3.253Z" transform="translate(6.3 -0.42)" fill="#fff"/>
        </g>
      </g>
      <path id="Trazado_195" data-name="Trazado 195" d="M17.549.87l5.69,17.516H41.662l-14.9,10.83,5.69,17.516L17.549,35.9l-14.9,10.83L8.34,29.216l-14.9-10.83H11.859Z" transform="translate(6.563 398.338)" fill="#fff"/>
    </g>
    <g id="Grupo_126" data-name="Grupo 126" transform="translate(341.758 53.293)">
      <g id="Grupo_125" data-name="Grupo 125" transform="translate(21.226)">
        <g id="Grupo_114" data-name="Grupo 114" transform="translate(0 324.572)">
          <path id="Trazado_196" data-name="Trazado 196" d="M-5.058,3.263A2.9,2.9,0,0,0-2.144,6.177,2.885,2.885,0,0,0,.689,3.263,2.868,2.868,0,0,0-2.144.43,2.885,2.885,0,0,0-5.058,3.263Z" transform="translate(5.058 7.745)" fill="#fff"/>
          <path id="Trazado_197" data-name="Trazado 197" d="M-5.058,3.243A2.885,2.885,0,0,0-2.144,6.076,2.868,2.868,0,0,0,.689,3.243,2.885,2.885,0,0,0-2.144.329,2.9,2.9,0,0,0-5.058,3.243Z" transform="translate(5.058 -0.329)" fill="#fff"/>
        </g>
        <g id="Grupo_115" data-name="Grupo 115" transform="translate(0 286.449)">
          <path id="Trazado_198" data-name="Trazado 198" d="M-5.058,2.872A2.885,2.885,0,0,0-2.144,5.7,2.868,2.868,0,0,0,.689,2.872,2.885,2.885,0,0,0-2.144-.042,2.9,2.9,0,0,0-5.058,2.872Z" transform="translate(5.058 8.136)" fill="#fff"/>
          <path id="Trazado_199" data-name="Trazado 199" d="M-5.058,2.691A2.834,2.834,0,0,0-2.144,5.524,2.815,2.815,0,0,0,.689,2.691,2.868,2.868,0,0,0-2.144-.142,2.885,2.885,0,0,0-5.058,2.691Z" transform="translate(5.058 0.142)" fill="#fff"/>
        </g>
        <g id="Grupo_116" data-name="Grupo 116" transform="translate(0 248.245)">
          <path id="Trazado_200" data-name="Trazado 200" d="M-5.058,2.32A2.9,2.9,0,0,0-2.144,5.234,2.885,2.885,0,0,0,.689,2.32,2.868,2.868,0,0,0-2.144-.513,2.885,2.885,0,0,0-5.058,2.32Z" transform="translate(5.058 8.688)" fill="#fff"/>
          <path id="Trazado_201" data-name="Trazado 201" d="M-5.058,2.3A2.885,2.885,0,0,0-2.144,5.133,2.868,2.868,0,0,0,.689,2.3,2.885,2.885,0,0,0-2.144-.614,2.9,2.9,0,0,0-5.058,2.3Z" transform="translate(5.058 0.614)" fill="#fff"/>
        </g>
        <g id="Grupo_117" data-name="Grupo 117" transform="translate(0 210.122)">
          <path id="Trazado_202" data-name="Trazado 202" d="M-5.058,1.849A2.885,2.885,0,0,0-2.144,4.682,2.868,2.868,0,0,0,.689,1.849,2.815,2.815,0,0,0-2.144-.984,2.834,2.834,0,0,0-5.058,1.849Z" transform="translate(5.058 9.159)" fill="#fff"/>
          <path id="Trazado_203" data-name="Trazado 203" d="M-5.058,1.748A2.9,2.9,0,0,0-2.144,4.662,2.885,2.885,0,0,0,.689,1.748,2.868,2.868,0,0,0-2.144-1.085,2.885,2.885,0,0,0-5.058,1.748Z" transform="translate(5.058 1.085)" fill="#fff"/>
        </g>
        <g id="Grupo_118" data-name="Grupo 118" transform="translate(0 171.999)">
          <path id="Trazado_204" data-name="Trazado 204" d="M-5.058,1.458A2.885,2.885,0,0,0-2.144,4.291,2.868,2.868,0,0,0,.689,1.458,2.885,2.885,0,0,0-2.144-1.456,2.9,2.9,0,0,0-5.058,1.458Z" transform="translate(5.058 9.55)" fill="#fff"/>
          <path id="Trazado_205" data-name="Trazado 205" d="M-5.058,1.277A2.885,2.885,0,0,0-2.144,4.11,2.868,2.868,0,0,0,.689,1.277,2.815,2.815,0,0,0-2.144-1.556,2.834,2.834,0,0,0-5.058,1.277Z" transform="translate(5.058 1.556)" fill="#fff"/>
        </g>
        <g id="Grupo_119" data-name="Grupo 119" transform="translate(0 133.795)">
          <path id="Trazado_206" data-name="Trazado 206" d="M-5.058.906A2.834,2.834,0,0,0-2.144,3.739,2.815,2.815,0,0,0,.689.906,2.868,2.868,0,0,0-2.144-1.927,2.885,2.885,0,0,0-5.058.906Z" transform="translate(5.058 10.102)" fill="#fff"/>
          <path id="Trazado_207" data-name="Trazado 207" d="M-5.058.8A2.9,2.9,0,0,0-2.144,3.719,2.885,2.885,0,0,0,.689.8,2.868,2.868,0,0,0-2.144-2.028,2.885,2.885,0,0,0-5.058.8Z" transform="translate(5.058 2.028)" fill="#fff"/>
        </g>
        <g id="Grupo_120" data-name="Grupo 120" transform="translate(0 95.672)">
          <path id="Trazado_208" data-name="Trazado 208" d="M-5.058.515A2.885,2.885,0,0,0-2.144,3.348,2.868,2.868,0,0,0,.689.515,2.885,2.885,0,0,0-2.144-2.4,2.9,2.9,0,0,0-5.058.515Z" transform="translate(5.058 10.493)" fill="#fff"/>
          <path id="Trazado_209" data-name="Trazado 209" d="M-5.058.334A2.834,2.834,0,0,0-2.144,3.167,2.815,2.815,0,0,0,.689.334,2.815,2.815,0,0,0-2.144-2.5,2.834,2.834,0,0,0-5.058.334Z" transform="translate(5.058 2.499)" fill="#fff"/>
        </g>
        <g id="Grupo_121" data-name="Grupo 121" transform="translate(0 57.468)">
          <path id="Trazado_210" data-name="Trazado 210" d="M-5.058-.037A2.9,2.9,0,0,0-2.144,2.877,2.885,2.885,0,0,0,.689-.037,2.868,2.868,0,0,0-2.144-2.87,2.885,2.885,0,0,0-5.058-.037Z" transform="translate(5.058 11.045)" fill="#fff"/>
          <path id="Trazado_211" data-name="Trazado 211" d="M-5.058-.057A2.885,2.885,0,0,0-2.144,2.776,2.868,2.868,0,0,0,.689-.057,2.885,2.885,0,0,0-2.144-2.971,2.9,2.9,0,0,0-5.058-.057Z" transform="translate(5.058 2.971)" fill="#fff"/>
        </g>
        <g id="Grupo_122" data-name="Grupo 122" transform="translate(0 19.345)">
          <path id="Trazado_212" data-name="Trazado 212" d="M-5.058-.428A2.885,2.885,0,0,0-2.144,2.4,2.868,2.868,0,0,0,.689-.428,2.885,2.885,0,0,0-2.144-3.342,2.9,2.9,0,0,0-5.058-.428Z" transform="translate(5.058 11.436)" fill="#fff"/>
          <path id="Trazado_213" data-name="Trazado 213" d="M-5.058-.609A2.834,2.834,0,0,0-2.144,2.224,2.815,2.815,0,0,0,.689-.609,2.868,2.868,0,0,0-2.144-3.442,2.885,2.885,0,0,0-5.058-.609Z" transform="translate(5.058 3.442)" fill="#fff"/>
        </g>
        <g id="Grupo_123" data-name="Grupo 123" transform="translate(1.583)">
          <rect id="Rectángulo_27" data-name="Rectángulo 27" width="2.614" height="407.456" fill="#fff"/>
        </g>
        <g id="Grupo_124" data-name="Grupo 124" transform="translate(0 362.776)">
          <path id="Trazado_214" data-name="Trazado 214" d="M-5.058,3.815A2.885,2.885,0,0,0-2.144,6.648,2.868,2.868,0,0,0,.689,3.815,2.885,2.885,0,0,0-2.144.9,2.9,2.9,0,0,0-5.058,3.815Z" transform="translate(5.058 7.193)" fill="#fff"/>
          <path id="Trazado_215" data-name="Trazado 215" d="M-5.058,3.634A2.834,2.834,0,0,0-2.144,6.467,2.815,2.815,0,0,0,.689,3.634,2.868,2.868,0,0,0-2.144.8,2.885,2.885,0,0,0-5.058,3.634Z" transform="translate(5.058 -0.801)" fill="#fff"/>
        </g>
      </g>
      <path id="Trazado_216" data-name="Trazado 216" d="M18.792,1.251l5.69,17.516H42.9L28,29.589l5.69,17.524-14.9-10.83-14.9,10.83,5.69-17.524L-5.32,18.767H13.1Z" transform="translate(5.32 397.965)" fill="#fff"/>
    </g>
  </g>
</svg>
